# Blender v3.0.0 OBJ File: 'duckling.blend'
# www.blender.org
mtllib duckling.mtl
o Cube_Cube.001
v 0.367659 -0.048670 0.000000
v 0.321742 0.143045 0.000000
v 0.061936 -0.140855 0.000000
v 0.096374 0.132924 0.000000
v 0.245851 0.090860 -0.103895
v 0.244725 -0.117710 0.000000
v -0.034967 0.126585 0.000000
v -0.276860 -0.012071 -0.118961
v 0.388661 0.028095 0.000000
v 0.074734 -0.005983 -0.186446
v 0.213949 -0.023738 -0.161688
v -0.151962 -0.016898 -0.164432
v 0.139362 0.147287 0.000000
v 0.311868 0.162799 0.000000
v 0.226086 0.141003 -0.049311
v 0.160277 0.185209 0.000000
v 0.159308 0.241451 0.000000
v 0.344132 0.210171 0.000000
v 0.330180 0.324551 -0.073473
v 0.314890 0.341241 -0.073473
v 0.324676 0.352547 -0.073473
v 0.341801 0.349316 -0.073473
v 0.347306 0.335857 -0.073473
v 0.432921 0.302651 -0.018232
v 0.452252 0.244185 -0.032485
v 0.420106 0.217743 0.000000
v 0.503482 0.192422 0.000000
v 0.558504 0.182098 0.000000
v 0.476447 0.271330 0.000000
v 0.401514 0.387870 0.000000
v 0.297426 0.411834 0.000000
v 0.204464 0.357646 0.000000
v -0.383647 0.003476 0.000000
v -0.168007 -0.123170 0.000000
v 0.241374 0.189014 -0.043611
v 0.236512 0.223418 -0.043736
v -0.324060 -0.107552 0.000000
v -0.366969 -0.085062 0.000000
v -0.234345 -0.072781 -0.119611
v -0.270252 0.076419 0.000000
v 0.098357 0.084634 -0.149487
v -0.092814 0.074530 -0.136475
v 0.195233 0.073301 -0.134422
v -0.172140 0.079368 -0.112877
v -0.213083 0.088446 -0.084621
v -0.330254 -0.014462 -0.082017
v 0.229668 -0.077090 -0.121508
v 0.068137 -0.083517 -0.171615
v -0.159985 -0.076060 -0.128219
v 0.293222 0.033386 -0.103997
v 0.361422 0.086725 0.000000
v 0.385056 -0.008301 0.000000
v 0.318017 -0.094255 0.000000
v 0.237064 0.043452 -0.132474
v 0.305278 0.002179 -0.102860
v 0.303475 -0.016020 -0.102860
v 0.294777 -0.036204 -0.108232
v 0.245851 0.090860 0.103895
v -0.276860 -0.012071 0.118961
v 0.074734 -0.005983 0.186446
v 0.213949 -0.023738 0.161688
v -0.151962 -0.016898 0.164432
v 0.226086 0.141003 0.049311
v 0.330180 0.324551 0.073473
v 0.314890 0.341241 0.073473
v 0.324676 0.352547 0.073473
v 0.341801 0.349316 0.073473
v 0.347306 0.335857 0.073473
v 0.432921 0.302651 0.018232
v 0.452252 0.244185 0.032485
v 0.241374 0.189014 0.043611
v 0.236512 0.223418 0.043736
v -0.234345 -0.072781 0.119611
v 0.098357 0.084634 0.149487
v -0.092814 0.074530 0.136475
v 0.195233 0.073301 0.134422
v -0.172140 0.079368 0.112877
v -0.213083 0.088446 0.084621
v -0.330254 -0.014462 0.082017
v 0.229668 -0.077090 0.121508
v 0.068137 -0.083517 0.171615
v -0.159985 -0.076060 0.128219
v 0.293222 0.033386 0.103997
v 0.237064 0.043452 0.132474
v 0.305278 0.002179 0.102860
v 0.303475 -0.016020 0.102860
v 0.294777 -0.036204 0.108232
vt 0.894531 0.675781
vt 0.894531 0.675781
vt 0.894531 0.675781
vt 0.900391 0.681641
vt 0.900391 0.681641
vt 0.900391 0.681641
vt 0.681641 0.677734
vt 0.681641 0.677734
vt 0.681641 0.677734
vt 0.681641 0.677734
vt 0.681641 0.677734
vt 0.681641 0.677734
vt 0.681641 0.677734
vt 0.681641 0.677734
vt 0.681641 0.677734
vt 0.681641 0.677734
vt 0.681641 0.677734
vt 0.779297 0.679688
vt 0.779297 0.679688
vt 0.779297 0.679688
vt 0.681641 0.677734
vt 0.681641 0.677734
vt 0.937500 0.933594
vt 0.937500 0.933594
vt 0.937500 0.933594
vt 0.681641 0.677734
vt 0.681641 0.677734
vt 0.681641 0.677734
vt 0.681641 0.677734
vt 0.681641 0.677734
vt 0.681641 0.677734
vt 0.681641 0.677734
vt 0.681641 0.677734
vt 0.814453 0.673828
vt 0.814453 0.673828
vt 0.814453 0.673828
vt 0.197266 0.443359
vt 0.197266 0.443359
vt 0.197266 0.443359
vt 0.197266 0.443359
vt 0.197266 0.443359
vt 0.681641 0.677734
vt 0.681641 0.677734
vt 0.681641 0.677734
vt 0.681641 0.677734
vt 0.681641 0.677734
vt 0.681641 0.677734
vt 0.681641 0.677734
vt 0.681641 0.677734
vt 0.681641 0.677734
vt 0.681641 0.677734
vt 0.681641 0.677734
vt 0.681641 0.677734
vt 0.779297 0.679688
vt 0.779297 0.679688
vt 0.681641 0.677734
vt 0.681641 0.677734
vt 0.681641 0.677734
vt 0.681641 0.677734
vt 0.779297 0.679688
vt 0.779297 0.679688
vt 0.779297 0.679688
vt 0.681641 0.677734
vt 0.681641 0.677734
vt 0.681641 0.677734
vt 0.900391 0.681641
vt 0.900391 0.681641
vt 0.900391 0.681641
vt 0.681641 0.677734
vt 0.681641 0.677734
vt 0.681641 0.677734
vt 0.681641 0.677734
vt 0.900391 0.681641
vt 0.900391 0.681641
vt 0.900391 0.681641
vt 0.681641 0.677734
vt 0.681641 0.677734
vt 0.681641 0.677734
vt 0.681641 0.677734
vt 0.681641 0.677734
vt 0.681641 0.677734
vt 0.810547 0.673828
vt 0.810547 0.673828
vt 0.810547 0.673828
vt 0.681641 0.677734
vt 0.681641 0.677734
vt 0.900391 0.681641
vt 0.900391 0.681641
vt 0.681641 0.677734
vt 0.681641 0.677734
vt 0.681641 0.677734
vt 0.681641 0.677734
vt 0.681641 0.677734
vt 0.681641 0.677734
vt 0.681641 0.677734
vt 0.681641 0.677734
vt 0.681641 0.677734
vt 0.681641 0.677734
vt 0.681641 0.677734
vt 0.681641 0.677734
vt 0.894531 0.675781
vt 0.894531 0.675781
vt 0.894531 0.675781
vt 0.937500 0.933594
vt 0.937500 0.933594
vt 0.937500 0.933594
vt 0.681641 0.677734
vt 0.681641 0.677734
vt 0.681641 0.677734
vt 0.681641 0.677734
vt 0.804688 0.679688
vt 0.804688 0.679688
vt 0.804688 0.679688
vt 0.164063 0.439453
vt 0.164063 0.439453
vt 0.164063 0.439453
vt 0.164063 0.439453
vt 0.164063 0.439453
vt 0.681641 0.677734
vt 0.681641 0.677734
vt 0.681641 0.677734
vt 0.681641 0.677734
vt 0.681641 0.677734
vt 0.681641 0.677734
vt 0.681641 0.677734
vt 0.681641 0.677734
vt 0.894531 0.675781
vt 0.894531 0.675781
vt 0.894531 0.675781
vt 0.681641 0.677734
vt 0.779297 0.679688
vt 0.779297 0.679688
vt 0.779297 0.679688
vt 0.681641 0.677734
vt 0.894531 0.675781
vt 0.894531 0.675781
vt 0.894531 0.675781
vt 0.900391 0.681641
vt 0.900391 0.681641
vt 0.900391 0.681641
vt 0.894531 0.675781
vt 0.894531 0.675781
vt 0.894531 0.675781
vt 0.681641 0.677734
vt 0.894531 0.675781
vt 0.894531 0.675781
vt 0.681641 0.677734
vt 0.810547 0.673828
vt 0.810547 0.673828
vt 0.810547 0.673828
vt 0.681641 0.677734
vt 0.681641 0.677734
vt 0.681641 0.677734
vt 0.681641 0.677734
vt 0.900391 0.681641
vt 0.900391 0.681641
vt 0.900391 0.681641
vt 0.681641 0.677734
vt 0.900391 0.681641
vt 0.937500 0.933594
vt 0.937500 0.933594
vt 0.804688 0.679688
vt 0.804688 0.679688
vt 0.681641 0.677734
vt 0.779297 0.679688
vt 0.894531 0.675781
vt 0.894531 0.675781
vt 0.894531 0.675781
vt 0.937500 0.933594
vt 0.937500 0.933594
vt 0.814453 0.673828
vt 0.779297 0.679688
vt 0.681641 0.677734
vn 0.1471 -0.1979 -0.9691
vn -0.0721 0.9417 -0.3286
vn 0.2877 0.7549 -0.5893
vn -0.3524 0.6221 -0.6991
vn -0.4638 0.2558 -0.8482
vn 0.5320 -0.3623 -0.7653
vn 0.4431 0.2215 -0.8687
vn 0.2738 -0.4959 -0.8241
vn -0.4565 0.1658 -0.8741
vn -0.2759 -0.2527 -0.9274
vn -0.5214 0.2026 -0.8289
vn -0.3651 0.6264 -0.6887
vn -0.0000 0.0000 -1.0000
vn 0.1501 0.7959 -0.5865
vn 0.5719 0.3678 -0.7333
vn 0.6708 0.2743 -0.6891
vn -0.1908 -0.6603 -0.7263
vn 0.5002 0.3576 -0.7886
vn 0.0533 -0.5351 -0.8431
vn -0.1988 -0.6545 -0.7295
vn -0.1138 -0.6065 -0.7869
vn 0.4917 0.4522 -0.7441
vn -0.1212 -0.5062 -0.8539
vn -0.2871 0.8972 0.3355
vn -0.5909 -0.4064 -0.6969
vn -0.3971 -0.7576 -0.5181
vn -0.4518 -0.5661 -0.6895
vn -0.4016 0.7454 -0.5321
vn 0.3813 0.0505 -0.9231
vn -0.4944 -0.0085 -0.8692
vn 0.3934 -0.0162 -0.9192
vn -0.4677 0.2496 -0.8479
vn -0.1073 0.3535 -0.9293
vn 0.1696 0.8915 -0.4202
vn 0.1826 0.3301 -0.9261
vn -0.0104 0.8742 -0.4855
vn -0.0438 0.9395 -0.3398
vn 0.4063 -0.5155 0.7544
vn 0.6284 -0.7072 0.3240
vn 0.2085 -0.9780 0.0019
vn 0.0341 -0.9361 0.3501
vn -0.0800 -0.9395 -0.3331
vn -0.0914 -0.9435 -0.3185
vn -0.1779 -0.4961 -0.8499
vn 0.1187 -0.9372 -0.3280
vn 0.5779 0.4774 -0.6619
vn 0.5810 -0.6327 -0.5119
vn 0.6286 0.4429 -0.6394
vn 0.7044 0.3273 -0.6298
vn 0.7840 -0.0776 -0.6159
vn 0.8028 -0.1961 -0.5632
vn 0.2871 -0.8972 -0.3355
vn 0.4711 0.3897 -0.7913
vn 0.3493 0.4354 -0.8297
vn 0.2621 0.3076 -0.9147
vn 0.4719 0.2100 -0.8563
vn -0.1393 -0.9900 -0.0202
vn 0.7190 0.2542 -0.6469
vn 0.5013 0.1627 -0.8499
vn 0.5516 -0.0546 -0.8323
vn 0.5500 -0.0148 -0.8350
vn 0.4422 -0.4528 -0.7742
vn 0.5395 -0.7144 -0.4456
vn -0.0933 -0.9326 -0.3485
vn 0.0000 0.0000 1.0000
vn 0.1471 -0.1979 0.9691
vn -0.0721 0.9417 0.3286
vn 0.2877 0.7549 0.5893
vn -0.3524 0.6221 0.6991
vn -0.4638 0.2558 0.8482
vn 0.5320 -0.3623 0.7653
vn 0.4431 0.2215 0.8687
vn 0.2738 -0.4959 0.8241
vn -0.4565 0.1658 0.8741
vn -0.2759 -0.2527 0.9274
vn -0.5214 0.2026 0.8289
vn -0.3651 0.6264 0.6887
vn 0.1501 0.7959 0.5865
vn 0.5719 0.3678 0.7333
vn 0.6008 0.3727 0.7072
vn -0.1908 -0.6603 0.7263
vn 0.5002 0.3576 0.7886
vn 0.0533 -0.5351 0.8431
vn -0.1988 -0.6545 0.7295
vn -0.1138 -0.6065 0.7869
vn 0.4917 0.4522 0.7441
vn -0.1212 -0.5062 0.8539
vn -0.2871 0.8972 -0.3355
vn -0.5909 -0.4064 0.6969
vn -0.3971 -0.7576 0.5181
vn -0.8429 -0.1588 0.5140
vn -0.5639 0.6773 0.4725
vn 0.3813 0.0505 0.9231
vn -0.4944 -0.0085 0.8692
vn 0.3934 -0.0162 0.9192
vn -0.4677 0.2496 0.8479
vn -0.1073 0.3535 0.9293
vn -0.3026 0.9058 0.2966
vn 0.1826 0.3301 0.9261
vn -0.0104 0.8742 0.4855
vn -0.0438 0.9395 0.3398
vn -0.2351 0.4201 0.8765
vn 0.4063 -0.5155 -0.7544
vn 0.6284 -0.7072 -0.3240
vn 0.2085 -0.9780 -0.0019
vn 0.0341 -0.9361 -0.3501
vn -0.0800 -0.9395 0.3331
vn -0.0914 -0.9435 0.3185
vn -0.1779 -0.4961 0.8499
vn 0.1187 -0.9372 0.3280
vn 0.5779 0.4774 0.6619
vn -0.5810 0.6327 -0.5119
vn 0.6286 0.4429 0.6394
vn 0.7044 0.3273 0.6298
vn 0.7840 -0.0776 0.6159
vn 0.5810 -0.6327 0.5119
vn 0.2871 -0.8972 0.3355
vn 0.4711 0.3897 0.7913
vn 0.3493 0.4354 0.8297
vn 0.2621 0.3076 0.9147
vn 0.4719 0.2100 0.8563
vn -0.1393 -0.9900 0.0202
vn 0.7190 0.2542 0.6469
vn 0.5013 0.1627 0.8499
vn 0.5516 -0.0546 0.8323
vn 0.5500 -0.0148 0.8350
vn 0.4422 -0.4528 0.7742
vn 0.5395 -0.7144 0.4456
vn 0.7528 -0.3244 0.5727
vn -0.0933 -0.9326 0.3485
vn -0.0459 0.9504 -0.3076
vn -0.3026 0.9058 -0.2966
vn 0.2709 -0.5269 0.8056
vn -0.0459 0.9504 0.3076
vn -0.5880 0.5089 0.6287
vn 0.1843 0.8007 0.5700
vn 0.5718 0.3676 0.7334
vn 0.6708 0.2743 0.6891
vn 0.3271 -0.4954 0.8047
vn -0.3408 -0.2289 0.9118
vn -0.4699 -0.0696 0.8799
vn -0.0831 0.3949 0.9150
vn 0.1696 0.8915 0.4202
vn 0.2041 0.3011 0.9315
vn -0.2997 0.4008 0.8657
vn 0.4935 -0.5448 -0.6780
vn -0.4768 0.7412 0.4725
vn -0.0865 -0.1801 0.9798
vn 0.8028 -0.1961 0.5632
vn 0.2709 -0.5269 -0.8056
vn -0.5880 0.5089 -0.6287
vn 0.1843 0.8007 -0.5700
vn 0.5718 0.3676 -0.7334
vn 0.6008 0.3727 -0.7072
vn 0.3271 -0.4954 -0.8047
vn -0.3408 -0.2289 -0.9118
vn -0.8429 -0.1588 -0.5140
vn -0.2351 0.4201 -0.8765
vn -0.2997 0.4008 -0.8657
vn -0.4768 0.7412 -0.4725
vn -0.2060 0.9664 -0.1538
vn -0.5639 0.6773 -0.4725
vn -0.4699 -0.0696 -0.8799
vn -0.0831 0.3949 -0.9150
vn 0.2041 0.3011 -0.9315
vn 0.4935 -0.5448 0.6780
vn -0.0719 -0.9348 -0.3479
vn -0.0865 -0.1801 -0.9798
vn 0.1335 -0.9414 -0.3097
vn 0.7528 -0.3244 -0.5727
vn -0.4518 -0.5661 0.6895
vn -0.2060 0.9664 0.1538
vn -0.4016 0.7454 0.5321
vn -0.0719 -0.9348 0.3479
vn 0.1335 -0.9414 0.3097
usemtl Material.001
s off
f 11/1/1 48/2/1 10/3/1
f 7/4/2 41/5/2 42/6/2
f 2/7/3 5/8/3 15/9/3
f 5/8/4 13/10/4 15/9/4
f 15/9/5 13/10/5 16/11/5
f 15/9/6 18/12/6 14/13/6
f 14/13/7 2/7/7 15/9/7
f 19/14/8 18/12/8 36/15/8
f 19/14/9 36/15/9 17/16/9
f 19/14/10 17/16/10 20/17/10
f 20/18/11 17/19/11 32/20/11
f 31/21/12 20/17/12 32/22/12
f 22/23/13 23/24/13 19/25/13
f 31/21/14 22/26/14 21/27/14
f 29/28/15 25/29/15 24/30/15
f 23/31/16 22/26/16 30/32/16
f 25/29/17 26/33/17 19/14/17
f 19/34/18 24/35/18 25/36/18
f 19/14/19 26/33/19 18/12/19
f 26/37/20 25/38/20 27/39/20
f 27/39/21 25/38/21 28/40/21
f 28/40/22 25/38/22 29/41/22
f 39/42/23 12/43/23 49/44/23
f 47/45/24 6/46/24 53/47/24
f 8/48/25 39/42/25 38/49/25
f 39/42/26 37/50/26 38/49/26
f 38/49/27 46/51/27 8/48/27
f 8/48/28 46/51/28 40/52/28
f 18/12/29 35/53/29 36/15/29
f 36/54/30 16/55/30 17/19/30
f 15/9/31 35/53/31 18/12/31
f 35/53/32 15/9/32 16/11/32
f 42/56/33 10/57/33 12/43/33
f 41/58/34 13/10/34 43/59/34
f 43/59/35 10/57/35 41/58/35
f 43/60/36 13/61/36 5/62/36
f 44/63/37 7/64/37 42/56/37
f 45/65/38 8/48/38 44/63/38
f 40/66/39 46/67/39 45/68/39
f 7/64/40 40/52/40 45/68/40
f 45/65/41 44/63/41 7/64/41
f 49/44/42 37/50/42 39/42/42
f 3/69/43 49/44/43 48/70/43
f 12/43/44 48/70/44 49/44/44
f 3/69/45 47/45/45 6/46/45
f 50/71/46 5/8/46 2/7/46
f 1/72/47 53/47/47 47/45/47
f 51/73/48 50/74/48 2/75/48
f 51/76/49 9/77/49 50/71/49
f 52/78/50 56/79/50 55/80/50
f 1/72/51 57/81/51 56/79/51
f 47/82/47 1/83/47 53/84/47
f 47/45/52 53/47/52 6/46/52
f 5/8/53 50/71/53 54/85/53
f 54/85/54 43/59/54 5/8/54
f 54/85/55 11/86/55 43/59/55
f 50/71/56 11/86/56 54/85/56
f 11/86/57 57/81/57 1/72/57
f 50/71/58 9/77/58 55/80/58
f 55/87/59 11/88/59 50/74/59
f 55/80/60 56/79/60 11/86/60
f 56/79/61 57/81/61 11/86/61
f 11/86/62 57/81/62 47/45/62
f 57/81/63 1/72/63 47/45/63
f 34/89/64 37/50/64 49/44/64
f 27/90/65 29/28/65 26/33/65
f 81/91/66 61/92/66 60/93/66
f 74/94/67 7/64/67 75/95/67
f 2/7/68 63/96/68 58/97/68
f 58/97/69 63/96/69 13/10/69
f 63/96/70 16/11/70 13/10/70
f 63/96/71 14/13/71 18/12/71
f 14/13/72 63/96/72 2/7/72
f 64/98/73 72/99/73 18/12/73
f 64/98/74 17/16/74 72/99/74
f 64/98/75 65/100/75 17/16/75
f 65/101/76 32/102/76 17/103/76
f 65/100/77 31/21/77 32/22/77
f 64/104/65 67/105/65 66/106/65
f 67/107/78 31/21/78 66/108/78
f 29/28/79 69/109/79 70/110/79
f 30/111/80 68/112/80 69/113/80
f 70/110/81 64/98/81 26/33/81
f 69/109/82 64/98/82 70/110/82
f 64/98/83 18/12/83 26/33/83
f 26/114/84 27/115/84 70/116/84
f 27/115/85 28/117/85 70/116/85
f 28/117/86 29/118/86 70/116/86
f 73/119/87 82/120/87 62/121/87
f 80/122/88 53/47/88 6/46/88
f 73/119/89 59/123/89 38/49/89
f 73/119/90 38/49/90 37/50/90
f 38/49/91 79/124/91 33/125/91
f 59/123/92 77/126/92 40/52/92
f 18/127/93 72/128/93 71/129/93
f 16/11/94 72/99/94 17/16/94
f 63/96/95 18/12/95 71/130/95
f 71/130/96 16/11/96 63/96/96
f 60/131/97 75/132/97 62/133/97
f 74/94/98 13/10/98 4/134/98
f 60/135/99 76/136/99 74/137/99
f 76/138/100 58/139/100 13/140/100
f 77/126/101 75/95/101 7/64/101
f 77/141/102 62/142/102 75/143/102
f 78/144/103 77/126/103 59/123/103
f 40/52/104 78/144/104 79/124/104
f 7/64/105 78/144/105 40/52/105
f 78/145/106 7/146/106 77/141/106
f 82/120/107 73/119/107 37/50/107
f 82/120/108 3/69/108 81/91/108
f 62/121/109 82/120/109 81/91/109
f 80/122/110 3/69/110 6/46/110
f 83/147/111 2/7/111 58/97/111
f 1/72/112 53/47/112 80/122/112
f 51/148/113 2/149/113 83/150/113
f 51/76/114 83/147/114 9/77/114
f 52/78/115 85/151/115 86/152/115
f 80/122/116 53/47/116 1/72/116
f 80/122/117 6/46/117 53/47/117
f 58/97/118 84/153/118 83/147/118
f 84/153/119 58/97/119 76/154/119
f 84/153/120 76/154/120 61/92/120
f 83/155/121 84/156/121 61/157/121
f 61/92/122 1/72/122 87/158/122
f 83/147/123 85/151/123 9/77/123
f 85/151/124 83/147/124 61/92/124
f 85/151/125 61/92/125 86/152/125
f 86/152/126 61/92/126 87/158/126
f 61/92/127 80/122/127 87/158/127
f 87/158/128 80/122/128 1/72/128
f 86/152/129 1/72/129 52/78/129
f 34/89/130 82/120/130 37/50/130
f 7/4/131 4/159/131 41/5/131
f 41/58/132 4/134/132 13/10/132
f 81/91/133 80/122/133 61/92/133
f 74/94/134 4/134/134 7/64/134
f 65/100/135 66/108/135 31/21/135
f 66/106/65 65/160/65 64/104/65
f 64/104/65 68/161/65 67/105/65
f 67/107/136 30/32/136 31/21/136
f 69/113/137 29/162/137 30/111/137
f 30/111/138 67/163/138 68/112/138
f 69/109/139 68/164/139 64/98/139
f 73/119/140 62/121/140 59/123/140
f 16/11/141 71/130/141 72/99/141
f 60/131/142 74/165/142 75/132/142
f 74/94/143 76/154/143 13/10/143
f 60/135/144 61/166/144 76/136/144
f 77/141/145 59/167/145 62/142/145
f 78/144/146 59/123/146 79/124/146
f 40/52/147 33/125/147 79/124/147
f 62/121/148 81/91/148 60/93/148
f 85/151/115 52/78/115 9/77/115
f 86/152/149 87/158/149 1/72/149
f 11/1/150 47/168/150 48/2/150
f 31/21/151 21/27/151 20/17/151
f 19/25/13 20/169/13 21/170/13
f 21/170/13 22/23/13 19/25/13
f 31/21/152 30/32/152 22/26/152
f 30/32/153 29/28/153 24/30/153
f 24/30/154 23/31/154 30/32/154
f 19/34/155 23/171/155 24/35/155
f 8/48/156 12/43/156 39/42/156
f 38/49/157 33/125/157 46/51/157
f 42/56/158 12/43/158 44/63/158
f 12/43/159 8/48/159 44/63/159
f 33/125/160 40/52/160 46/51/160
f 40/52/161 7/64/161 44/63/161
f 8/48/162 40/52/162 44/63/162
f 36/54/163 35/172/163 16/55/163
f 42/56/164 41/58/164 10/57/164
f 43/59/165 11/86/165 10/57/165
f 45/65/166 46/51/166 8/48/166
f 3/69/167 34/89/167 49/44/167
f 12/43/168 10/57/168 48/70/168
f 3/69/169 48/70/169 47/45/169
f 55/80/50 9/77/50 52/78/50
f 56/79/170 52/78/170 1/72/170
f 27/90/65 28/173/65 29/28/65
f 38/49/171 59/123/171 79/124/171
f 7/64/172 40/52/172 77/126/172
f 59/123/173 40/52/173 79/124/173
f 82/120/174 34/89/174 3/69/174
f 80/122/175 81/91/175 3/69/175
