# Blender v3.0.0 OBJ File: 'duck.blend'
# www.blender.org
mtllib duck.mtl
o Cube_Cube.001
v 0.517033 -0.084562 0.000000
v 0.452927 0.219496 0.000000
v -0.014791 -0.255988 0.000000
v 0.033288 0.178224 0.000000
v 0.346975 0.136731 -0.120232
v 0.345402 -0.194060 0.000000
v -0.130781 0.156309 0.000000
v -0.468493 -0.063599 -0.129286
v 0.546354 0.037187 0.000000
v 0.003076 -0.042080 -0.232608
v 0.302435 -0.045020 -0.200919
v -0.294121 -0.071255 -0.192768
v 0.198303 0.226224 0.000000
v 0.424725 0.245506 0.000000
v 0.319380 0.216258 -0.044027
v 0.192472 0.259913 0.000000
v 0.190345 0.317496 0.000000
v 0.412703 0.291368 0.000000
v 0.410218 0.415313 -0.072256
v 0.388135 0.442696 -0.072256
v 0.402268 0.461245 -0.072256
v 0.427001 0.455945 -0.072256
v 0.434951 0.433863 -0.072256
v 0.505357 0.393907 -0.018232
v 0.510712 0.321359 -0.032513
v 0.478299 0.292761 0.000000
v 0.659375 0.186766 0.000000
v 0.727389 0.194715 0.000000
v 0.556912 0.377559 0.000000
v 0.500381 0.510053 0.000000
v 0.354638 0.555984 0.000000
v 0.227443 0.458822 0.000000
v -0.617582 -0.038942 0.000000
v -0.316522 -0.239802 0.000000
v 0.313809 0.264816 -0.043611
v 0.308947 0.303900 -0.043736
v -0.534390 -0.215032 0.000000
v -0.594297 -0.179363 0.000000
v -0.409137 -0.159884 -0.130192
v -0.459268 0.076745 0.000000
v 0.036057 0.101637 -0.181008
v -0.211543 0.073749 -0.153737
v 0.276305 0.108883 -0.162852
v -0.299637 0.089030 -0.121464
v -0.379453 0.095820 -0.081343
v -0.543038 -0.043856 -0.077706
v 0.324381 -0.129637 -0.144823
v -0.006134 -0.165049 -0.211903
v -0.305322 -0.165086 -0.142211
v 0.413110 0.045577 -0.120375
v 0.508326 0.130172 0.000000
v 0.541322 -0.020538 0.000000
v 0.447728 -0.156860 0.000000
v 0.334706 0.061543 -0.160132
v 0.429941 -0.003917 -0.118787
v 0.427425 -0.032779 -0.118787
v 0.415281 -0.064791 -0.126287
v 0.346975 0.136731 0.120232
v -0.468493 -0.063599 0.129286
v 0.003076 -0.042080 0.232608
v 0.302435 -0.045020 0.200919
v -0.294121 -0.071255 0.192768
v 0.319380 0.216258 0.044027
v 0.410218 0.415313 0.072256
v 0.388135 0.442696 0.072256
v 0.402268 0.461245 0.072256
v 0.427001 0.455945 0.072256
v 0.434951 0.433863 0.072256
v 0.505357 0.393907 0.018232
v 0.510712 0.321359 0.032513
v 0.313809 0.264816 0.043611
v 0.308947 0.303900 0.043736
v -0.409137 -0.159884 0.130192
v 0.036057 0.101637 0.181008
v -0.211543 0.073749 0.153737
v 0.276305 0.108883 0.162852
v -0.299637 0.089030 0.121464
v -0.379453 0.095820 0.081343
v -0.543038 -0.043856 0.077706
v 0.324381 -0.129637 0.144823
v -0.006134 -0.165049 0.211903
v -0.305322 -0.165086 0.142211
v 0.413110 0.045577 0.120375
v 0.334706 0.061543 0.160132
v 0.429941 -0.003917 0.118787
v 0.427425 -0.032779 0.118787
v 0.415281 -0.064791 0.126287
vt 0.815403 0.569492
vt 0.815403 0.569492
vt 0.815403 0.569492
vt 0.666584 0.532287
vt 0.666584 0.532287
vt 0.666584 0.532287
vt 0.666584 0.532287
vt 0.666584 0.532287
vt 0.666584 0.532287
vt 0.666584 0.532287
vt 0.666584 0.532287
vt 0.666584 0.532287
vt 0.666584 0.532287
vt 0.700689 0.563291
vt 0.700689 0.563291
vt 0.700689 0.563291
vt 0.579773 0.566391
vt 0.579773 0.566391
vt 0.579773 0.566391
vt 0.697588 0.566391
vt 0.697588 0.566391
vt 0.697588 0.566391
vt 0.697588 0.566391
vt 0.697588 0.566391
vt 0.927017 0.932238
vt 0.927017 0.932238
vt 0.927017 0.932238
vt 0.576673 0.569492
vt 0.576673 0.569492
vt 0.576673 0.569492
vt 0.697588 0.566391
vt 0.697588 0.566391
vt 0.697588 0.566391
vt 0.697588 0.566391
vt 0.697588 0.566391
vt 0.697588 0.566391
vt 0.700689 0.563291
vt 0.700689 0.563291
vt 0.303838 0.553990
vt 0.303838 0.553990
vt 0.303838 0.553990
vt 0.303838 0.553990
vt 0.294537 0.566391
vt 0.294537 0.566391
vt 0.294537 0.566391
vt 0.666584 0.532287
vt 0.666584 0.532287
vt 0.666584 0.532287
vt 0.700689 0.569492
vt 0.700689 0.569492
vt 0.700689 0.569492
vt 0.666584 0.532287
vt 0.666584 0.532287
vt 0.065108 0.922936
vt 0.065108 0.922936
vt 0.065108 0.922936
vt 0.666584 0.532287
vt 0.700689 0.569492
vt 0.700689 0.569492
vt 0.700689 0.569492
vt 0.700689 0.563291
vt 0.700689 0.563291
vt 0.700689 0.563291
vt 0.666584 0.532287
vt 0.570472 0.572592
vt 0.570472 0.572592
vt 0.570472 0.572592
vt 0.666584 0.532287
vt 0.691387 0.575692
vt 0.691387 0.575692
vt 0.691387 0.575692
vt 0.666584 0.532287
vt 0.545669 0.535387
vt 0.545669 0.535387
vt 0.545669 0.535387
vt 0.666584 0.532287
vt 0.666584 0.532287
vt 0.099212 0.953940
vt 0.099212 0.953940
vt 0.099212 0.953940
vt 0.096112 0.941539
vt 0.096112 0.941539
vt 0.096112 0.941539
vt 0.691387 0.569492
vt 0.691387 0.569492
vt 0.691387 0.569492
vt 0.096112 0.941539
vt 0.096112 0.941539
vt 0.666584 0.532287
vt 0.700689 0.569492
vt 0.545669 0.535387
vt 0.545669 0.535387
vt 0.545669 0.535387
vt 0.666584 0.532287
vt 0.666584 0.532287
vt 0.666584 0.532287
vt 0.666584 0.532287
vt 0.666584 0.532287
vt 0.700689 0.569492
vt 0.700689 0.569492
vt 0.062008 0.910535
vt 0.062008 0.910535
vt 0.062008 0.910535
vt 0.096112 0.941539
vt 0.666584 0.532287
vt 0.666584 0.532287
vt 0.545669 0.535387
vt 0.545669 0.535387
vt 0.700689 0.569492
vt 0.666584 0.532287
vt 0.666584 0.532287
vt 0.155020 0.910535
vt 0.155020 0.910535
vt 0.155020 0.910535
vt 0.096112 0.941539
vt 0.096112 0.941539
vt 0.700689 0.569492
vt 0.700689 0.569492
vt 0.700689 0.569492
vt 0.554970 0.566391
vt 0.554970 0.566391
vt 0.554970 0.566391
vt 0.700689 0.569492
vt 0.700689 0.569492
vt 0.700689 0.569492
vt 0.700689 0.569492
vt 0.700689 0.569492
vt 0.700689 0.569492
vt 0.700689 0.569492
vt 0.697588 0.572592
vt 0.697588 0.572592
vt 0.697588 0.572592
vt 0.697588 0.572592
vt 0.697588 0.572592
vt 0.697588 0.566391
vt 0.821604 0.572592
vt 0.821604 0.572592
vt 0.821604 0.572592
vt 0.933218 0.926037
vt 0.933218 0.926037
vt 0.933218 0.926037
vt 0.697588 0.572592
vt 0.697588 0.572592
vt 0.697588 0.572592
vt 0.697588 0.572592
vt 0.697588 0.572592
vt 0.697588 0.572592
vt 0.697588 0.572592
vt 0.697588 0.572592
vt 0.334842 0.553990
vt 0.334842 0.553990
vt 0.334842 0.553990
vt 0.303838 0.560191
vt 0.303838 0.560191
vt 0.303838 0.560191
vt 0.303838 0.560191
vt 0.700689 0.569492
vt 0.700689 0.569492
vt 0.700689 0.569492
vt 0.700689 0.569492
vt 0.700689 0.569492
vt 0.700689 0.569492
vt 0.099212 0.960141
vt 0.099212 0.960141
vt 0.099212 0.960141
vt 0.700689 0.569492
vt 0.700689 0.569492
vt 0.700689 0.563291
vt 0.700689 0.563291
vt 0.700689 0.563291
vt 0.700689 0.569492
vt 0.700689 0.569492
vt 0.700689 0.563291
vt 0.824704 0.569492
vt 0.824704 0.569492
vt 0.824704 0.569492
vt 0.824704 0.569492
vt 0.824704 0.569492
vt 0.824704 0.569492
vt 0.579773 0.572592
vt 0.579773 0.572592
vt 0.579773 0.572592
vt 0.700689 0.569492
vt 0.700689 0.569492
vt 0.700689 0.569492
vt 0.700689 0.569492
vt 0.700689 0.569492
vt 0.579773 0.572592
vt 0.579773 0.572592
vt 0.579773 0.572592
vt 0.700689 0.569492
vt 0.790600 0.532287
vt 0.790600 0.532287
vt 0.790600 0.532287
vt 0.099212 0.960141
vt 0.331742 0.953940
vt 0.331742 0.953940
vt 0.331742 0.953940
vt 0.554970 0.566391
vt 0.554970 0.566391
vt 0.554970 0.566391
vt 0.096112 0.947740
vt 0.096112 0.947740
vt 0.096112 0.947740
vt 0.579773 0.572592
vt 0.579773 0.572592
vt 0.579773 0.572592
vt 0.666584 0.538488
vt 0.666584 0.538488
vt 0.666584 0.538488
vt 0.700689 0.569492
vt 0.700689 0.569492
vt 0.700689 0.569492
vt 0.700689 0.569492
vt 0.700689 0.569492
vt 0.700689 0.569492
vt 0.700689 0.569492
vt 0.331742 0.953940
vt 0.331742 0.953940
vt 0.331742 0.953940
vt 0.331742 0.953940
vt 0.700689 0.569492
vt 0.579773 0.572592
vt 0.579773 0.572592
vt 0.579773 0.572592
vt 0.189124 0.947740
vt 0.189124 0.947740
vt 0.189124 0.947740
vt 0.331742 0.953940
vt 0.331742 0.953940
vt 0.815403 0.569492
vt 0.666584 0.532287
vt 0.697588 0.566391
vt 0.927017 0.932238
vt 0.927017 0.932238
vt 0.576673 0.569492
vt 0.666584 0.532287
vt 0.700689 0.569492
vt 0.700689 0.569492
vt 0.700689 0.569492
vt 0.570472 0.572592
vt 0.691387 0.575692
vt 0.545669 0.535387
vt 0.691387 0.569492
vt 0.554970 0.566391
vt 0.821604 0.572592
vt 0.933218 0.926037
vt 0.933218 0.926037
vt 0.697588 0.572592
vt 0.700689 0.563291
vt 0.700689 0.563291
vt 0.700689 0.563291
vt 0.700689 0.563291
vt 0.824704 0.569492
vt 0.579773 0.572592
vt 0.554970 0.566391
vt 0.096112 0.947740
vn 0.1020 -0.1726 -0.9797
vn -0.1464 0.9015 -0.4072
vn 0.2038 0.7133 -0.6706
vn -0.2173 0.6350 -0.7413
vn -0.3455 -0.0598 -0.9365
vn 0.3614 0.0947 -0.9276
vn 0.2903 0.3148 -0.9037
vn 0.2917 -0.4774 -0.8289
vn -0.3384 0.0673 -0.9386
vn -0.2310 -0.1863 -0.9550
vn -0.3991 0.1048 -0.9109
vn -0.3325 0.4353 -0.8366
vn -0.0000 0.0000 -1.0000
vn 0.1523 0.7107 -0.6868
vn 0.3836 0.2055 -0.9003
vn 0.5996 0.2159 -0.7706
vn -0.2487 -0.5907 -0.7676
vn 0.5176 0.2019 -0.8315
vn 0.0107 -0.5034 -0.8640
vn -0.3136 -0.5358 -0.7839
vn 0.0244 -0.2091 -0.9776
vn 0.3006 0.2803 -0.9116
vn -0.1248 -0.4590 -0.8796
vn -0.3095 0.8513 0.4236
vn -0.5234 -0.3152 -0.7916
vn -0.3886 -0.6527 -0.6503
vn -0.5938 -0.2193 -0.7742
vn 0.3041 -0.6562 0.6906
vn 0.3927 0.0459 -0.9185
vn -0.3473 -0.0128 -0.9377
vn 0.3911 0.0527 -0.9189
vn -0.3370 -0.0306 -0.9410
vn -0.1576 0.3394 -0.9273
vn 0.0191 0.8155 -0.5784
vn 0.1030 0.3151 -0.9435
vn 0.0257 0.8168 -0.5763
vn -0.0173 0.8846 -0.4660
vn -0.4161 0.4671 -0.7802
vn -0.5940 0.6847 -0.4223
vn -0.2354 0.9719 -0.0031
vn -0.1053 0.9247 -0.3659
vn -0.0981 -0.8790 -0.4667
vn -0.0921 -0.9137 -0.3959
vn -0.1161 -0.1565 -0.9808
vn 0.1538 -0.8943 -0.4202
vn 0.5392 0.3924 -0.7452
vn 0.5789 -0.5550 -0.5974
vn 0.5883 0.3648 -0.7217
vn 0.6551 0.2679 -0.7065
vn 0.7236 -0.0631 -0.6873
vn 0.7602 -0.1398 -0.6344
vn 0.3095 -0.8513 -0.4236
vn 0.4794 0.3491 -0.8052
vn 0.3570 0.3917 -0.8480
vn 0.2649 0.2737 -0.9246
vn 0.4742 0.1858 -0.8606
vn -0.1516 -0.9879 -0.0325
vn 0.6635 0.2025 -0.7203
vn 0.5028 0.1436 -0.8524
vn 0.5518 -0.0481 -0.8326
vn 0.5500 -0.0130 -0.8351
vn 0.4528 -0.4081 -0.7927
vn 0.5573 -0.6249 -0.5468
vn -0.0998 -0.8776 -0.4689
vn 0.1020 -0.1726 0.9797
vn -0.1464 0.9015 0.4072
vn 0.2038 0.7133 0.6706
vn -0.2173 0.6350 0.7413
vn -0.3455 -0.0598 0.9365
vn 0.3614 0.0947 0.9276
vn 0.2903 0.3148 0.9037
vn 0.2917 -0.4774 0.8289
vn -0.3384 0.0673 0.9386
vn -0.2310 -0.1863 0.9550
vn -0.3991 0.1048 0.9109
vn -0.3325 0.4353 0.8366
vn -0.0000 0.0000 1.0000
vn 0.2070 0.6570 0.7249
vn 0.3836 0.2055 0.9003
vn 0.6527 0.1447 0.7436
vn -0.2487 -0.5907 0.7676
vn 0.5176 0.2019 0.8315
vn 0.0107 -0.5034 0.8640
vn -0.3136 -0.5358 0.7839
vn 0.0244 -0.2091 0.9776
vn 0.3006 0.2803 0.9116
vn -0.1248 -0.4590 0.8796
vn -0.3095 0.8513 -0.4236
vn -0.5234 -0.3152 0.7916
vn -0.3886 -0.6527 0.6503
vn -0.7202 -0.1194 0.6834
vn 0.5134 -0.5994 -0.6141
vn 0.3927 0.0459 0.9185
vn -0.3473 -0.0128 0.9377
vn 0.3911 0.0527 0.9189
vn -0.3370 -0.0306 0.9410
vn -0.1576 0.3394 0.9273
vn -0.2584 0.8883 0.3798
vn 0.0655 0.2501 0.9660
vn 0.0257 0.8168 0.5763
vn -0.0173 0.8846 0.4660
vn -0.3700 0.4509 0.8123
vn -0.5940 0.6847 0.4223
vn -0.2354 0.9719 0.0031
vn -0.1053 0.9247 0.3659
vn -0.0981 -0.8790 0.4667
vn -0.0921 -0.9137 0.3959
vn -0.2030 -0.4456 0.8719
vn 0.1538 -0.8943 0.4202
vn 0.5392 0.3924 0.7452
vn 0.5789 -0.5550 0.5974
vn 0.5883 0.3648 0.7217
vn 0.6551 0.2679 0.7065
vn 0.7236 -0.0631 0.6873
vn 0.7602 -0.1398 0.6344
vn 0.3095 -0.8513 0.4236
vn 0.4794 0.3491 0.8052
vn 0.3570 0.3917 0.8480
vn 0.2649 0.2737 0.9246
vn 0.4742 0.1858 0.8606
vn -0.1516 -0.9879 0.0325
vn 0.6635 0.2025 0.7203
vn 0.5028 0.1436 0.8524
vn 0.5518 -0.0481 0.8326
vn 0.5500 -0.0130 0.8351
vn 0.4528 -0.4081 0.7927
vn 0.5573 -0.6249 0.5468
vn -0.0998 -0.8776 0.4689
vn 0.2234 -0.4977 -0.8381
vn -0.1220 0.9134 -0.3883
vn -0.4806 0.3661 -0.7969
vn 0.2070 0.6570 -0.7249
vn 0.3737 0.1594 -0.9137
vn 0.6527 0.1447 -0.7436
vn 0.3531 -0.4709 -0.8085
vn -0.3428 -0.2027 -0.9173
vn -0.7202 -0.1194 -0.6834
vn -0.2578 0.3853 -0.8861
vn -0.3019 0.3788 -0.8749
vn -0.5021 0.6871 -0.5251
vn 0.2303 -0.9509 0.2065
vn 0.5134 -0.5994 0.6141
vn -0.3363 -0.0448 -0.9407
vn -0.1423 0.3632 -0.9208
vn -0.2584 0.8883 -0.3798
vn 0.0655 0.2501 -0.9660
vn -0.3700 0.4509 -0.8123
vn -0.0474 -0.8827 -0.4675
vn -0.2030 -0.4456 -0.8719
vn 0.1748 -0.9074 -0.3823
vn 0.7089 -0.2689 -0.6520
vn 0.2234 -0.4977 0.8381
vn -0.1220 0.9134 0.3883
vn -0.4806 0.3661 0.7969
vn 0.1523 0.7107 0.6868
vn 0.3737 0.1594 0.9137
vn 0.5996 0.2159 0.7706
vn 0.3531 -0.4709 0.8085
vn -0.3428 -0.2027 0.9173
vn -0.5938 -0.2193 0.7742
vn -0.3019 0.3788 0.8749
vn -0.2578 0.3853 0.8861
vn 0.2303 -0.9509 -0.2065
vn -0.5021 0.6871 0.5251
vn 0.3041 -0.6562 -0.6906
vn -0.3363 -0.0448 0.9407
vn -0.1423 0.3632 0.9208
vn 0.0191 0.8155 0.5784
vn 0.1030 0.3151 0.9435
vn -0.4161 0.4671 0.7802
vn -0.0474 -0.8827 0.4675
vn -0.1161 -0.1565 0.9808
vn 0.1748 -0.9074 0.3823
vn 0.7089 -0.2689 0.6520
usemtl Material.001
s off
f 11/1/1 48/2/1 10/3/1
f 7/4/2 41/5/2 42/6/2
f 2/7/3 5/8/3 15/9/3
f 5/8/4 13/10/4 15/9/4
f 15/9/5 13/10/5 16/11/5
f 15/9/6 18/12/6 14/13/6
f 14/13/7 2/7/7 15/9/7
f 19/14/8 18/15/8 36/16/8
f 19/17/9 36/18/9 17/19/9
f 19/20/10 17/21/10 20/22/10
f 20/22/11 17/21/11 32/23/11
f 31/24/12 20/22/12 32/23/12
f 22/25/13 23/26/13 19/27/13
f 21/28/14 30/29/14 22/30/14
f 29/31/15 25/32/15 24/33/15
f 23/34/16 22/35/16 30/36/16
f 25/37/17 26/38/17 19/14/17
f 19/20/18 24/33/18 25/32/18
f 19/14/19 26/38/19 18/15/19
f 26/39/20 25/40/20 27/41/20
f 27/41/21 25/40/21 28/42/21
f 28/43/22 25/44/22 29/45/22
f 39/46/23 12/47/23 49/48/23
f 47/49/24 6/50/24 53/51/24
f 8/52/25 39/46/25 38/53/25
f 39/54/26 37/55/26 38/56/26
f 38/53/27 46/57/27 8/52/27
f 8/58/28 40/59/28 46/60/28
f 18/15/29 35/61/29 36/16/29
f 36/16/30 16/62/30 17/63/30
f 15/9/31 35/64/31 18/12/31
f 35/64/32 15/9/32 16/11/32
f 42/65/33 10/66/33 12/67/33
f 41/5/34 13/10/34 43/68/34
f 41/69/35 11/70/35 10/71/35
f 43/68/36 13/10/36 5/8/36
f 44/72/37 7/4/37 42/6/37
f 45/73/38 8/74/38 46/75/38
f 46/57/39 40/76/39 45/77/39
f 7/4/40 45/77/40 40/76/40
f 45/77/41 7/4/41 44/72/41
f 49/78/42 37/79/42 39/80/42
f 49/81/43 48/82/43 3/83/43
f 12/84/44 10/85/44 48/86/44
f 47/87/45 6/88/45 3/83/45
f 50/89/46 5/8/46 2/7/46
f 1/90/47 53/51/47 47/49/47
f 51/91/48 50/92/48 2/93/48
f 51/94/49 9/95/49 50/89/49
f 55/96/50 52/97/50 56/98/50
f 56/99/51 1/90/51 57/100/51
f 47/101/47 1/102/47 53/103/47
f 47/87/52 53/104/52 6/88/52
f 5/8/53 50/89/53 54/105/53
f 54/105/54 43/68/54 5/8/54
f 54/105/55 11/106/55 43/68/55
f 50/92/56 11/107/56 54/108/56
f 11/109/57 57/100/57 1/90/57
f 50/89/58 9/95/58 55/96/58
f 55/96/59 11/106/59 50/89/59
f 55/96/60 56/98/60 11/106/60
f 56/98/61 57/110/61 11/106/61
f 11/106/62 57/110/62 47/111/62
f 57/112/63 1/113/63 47/114/63
f 34/115/64 37/116/64 49/81/64
f 81/117/65 61/118/65 60/119/65
f 74/120/66 7/121/66 75/122/66
f 2/123/67 63/124/67 58/125/67
f 58/125/68 63/124/68 13/126/68
f 63/124/69 16/127/69 13/126/69
f 63/124/70 14/128/70 18/129/70
f 14/128/71 63/124/71 2/123/71
f 64/130/72 72/131/72 18/132/72
f 64/130/73 17/133/73 72/131/73
f 64/130/74 65/134/74 17/133/74
f 65/135/75 32/23/75 17/21/75
f 65/136/76 31/137/76 32/138/76
f 64/139/77 68/140/77 67/141/77
f 66/142/78 30/143/78 31/144/78
f 29/145/79 69/146/79 70/147/79
f 30/143/80 68/148/80 69/146/80
f 70/147/81 64/130/81 26/149/81
f 69/146/82 64/130/82 70/147/82
f 64/130/83 18/132/83 26/149/83
f 26/150/84 27/151/84 70/152/84
f 27/153/85 28/154/85 70/155/85
f 28/154/86 29/156/86 70/155/86
f 73/157/87 82/158/87 62/159/87
f 80/160/88 53/51/88 6/50/88
f 73/157/89 59/161/89 38/162/89
f 73/163/90 38/164/90 37/165/90
f 38/162/91 79/166/91 33/167/91
f 59/168/92 40/169/92 77/170/92
f 18/129/93 72/171/93 71/172/93
f 16/62/94 72/173/94 17/63/94
f 63/174/95 18/175/95 71/176/95
f 71/172/96 16/127/96 63/124/96
f 60/177/97 75/178/97 62/179/97
f 74/180/98 13/181/98 4/182/98
f 74/183/99 61/118/99 76/184/99
f 76/184/100 58/125/100 13/126/100
f 77/185/101 75/186/101 7/187/101
f 78/188/102 59/189/102 77/190/102
f 40/59/103 79/166/103 78/191/103
f 7/192/104 40/193/104 78/194/104
f 78/191/105 77/185/105 7/187/105
f 82/195/106 73/163/106 37/165/106
f 3/196/107 81/197/107 82/198/107
f 62/199/108 82/200/108 81/201/108
f 3/202/109 6/203/109 80/204/109
f 83/205/110 2/206/110 58/207/110
f 1/90/111 80/160/111 53/51/111
f 51/208/112 2/209/112 83/210/112
f 51/211/113 83/212/113 9/213/113
f 52/214/114 85/215/114 86/216/114
f 1/90/115 86/216/115 87/217/115
f 80/218/111 53/219/111 1/220/111
f 80/218/116 6/221/116 53/219/116
f 58/125/117 84/222/117 83/212/117
f 84/222/118 58/125/118 76/184/118
f 84/223/119 76/224/119 61/225/119
f 83/212/120 84/222/120 61/118/120
f 61/118/121 1/90/121 87/217/121
f 83/212/122 85/215/122 9/213/122
f 85/215/123 83/212/123 61/118/123
f 85/215/124 61/118/124 86/216/124
f 86/216/125 61/118/125 87/217/125
f 61/118/126 80/160/126 87/217/126
f 87/226/127 80/227/127 1/228/127
f 34/229/128 82/198/128 37/230/128
f 11/1/129 47/231/129 48/2/129
f 7/4/130 4/232/130 41/5/130
f 31/24/131 21/233/131 20/22/131
f 19/27/13 20/234/13 22/25/13
f 20/234/13 21/235/13 22/25/13
f 21/28/132 31/236/132 30/29/132
f 30/36/133 29/31/133 24/33/133
f 24/33/134 23/34/134 30/36/134
f 19/20/135 23/34/135 24/33/135
f 8/52/136 12/47/136 39/46/136
f 38/53/137 33/237/137 46/57/137
f 42/238/138 12/239/138 44/240/138
f 12/239/139 8/58/139 44/240/139
f 33/167/140 40/59/140 46/60/140
f 40/59/141 44/240/141 7/187/141
f 8/58/142 44/240/142 40/59/142
f 36/16/143 35/61/143 16/62/143
f 42/65/144 41/241/144 10/66/144
f 41/5/145 4/232/145 13/10/145
f 41/69/146 43/242/146 11/70/146
f 45/73/147 44/243/147 8/74/147
f 49/81/148 3/83/148 34/115/148
f 12/84/149 48/86/149 49/244/149
f 47/87/150 3/83/150 48/82/150
f 52/97/50 55/96/50 9/95/50
f 1/90/151 56/99/151 52/214/151
f 81/117/152 80/160/152 61/118/152
f 74/120/153 4/245/153 7/121/153
f 65/136/154 66/246/154 31/137/154
f 66/247/77 65/248/77 67/141/77
f 65/248/77 64/139/77 67/141/77
f 66/142/155 67/249/155 30/143/155
f 69/146/156 29/145/156 30/143/156
f 30/143/157 67/249/157 68/148/157
f 69/146/158 68/148/158 64/130/158
f 73/157/159 62/159/159 59/161/159
f 38/162/160 59/161/160 79/166/160
f 59/161/161 62/159/161 77/185/161
f 62/159/162 75/186/162 77/185/162
f 7/250/163 77/170/163 40/169/163
f 40/169/164 33/251/164 79/252/164
f 59/168/165 79/252/165 40/169/165
f 16/62/166 71/253/166 72/173/166
f 60/177/167 74/254/167 75/178/167
f 74/180/168 76/224/168 13/181/168
f 74/183/169 60/119/169 61/118/169
f 78/188/170 79/255/170 59/189/170
f 3/196/171 82/198/171 34/229/171
f 62/199/172 81/201/172 60/256/172
f 3/202/173 80/204/173 81/257/173
f 85/215/114 52/214/114 9/213/114
f 86/216/174 1/90/174 52/214/174
