# Blender v2.93.5 OBJ File: 'fixed-duck.blend'
# www.blender.org
mtllib fixed-duck.mtl
o Cube_Cube.001
v 0.626027 -0.847162 -0.200919
v 0.317457 -0.967192 -0.211903
v 0.326668 -0.844223 -0.232608
v 0.192810 -0.645834 -0.000000
v 0.359648 -0.700505 -0.181008
v 0.112049 -0.728393 -0.153737
v 0.776519 -0.582646 -0.000000
v 0.670566 -0.665412 -0.120232
v 0.642972 -0.585884 -0.044027
v 0.521895 -0.575918 -0.000000
v 0.516063 -0.542230 -0.000000
v 0.736294 -0.510775 -0.000000
v 0.748316 -0.556636 -0.000000
v 0.733810 -0.386829 -0.072256
v 0.632539 -0.498243 -0.043736
v 0.513936 -0.484647 -0.000000
v 0.711727 -0.359447 -0.072256
v 0.551035 -0.343321 -0.000000
v 0.678229 -0.246158 -0.000000
v 0.750593 -0.346198 -0.072256
v 0.758542 -0.368280 -0.072256
v 0.725860 -0.340897 -0.072256
v 0.823972 -0.292089 -0.000000
v 0.880503 -0.424584 -0.000000
v 0.834304 -0.480783 -0.032513
v 0.828948 -0.408235 -0.018232
v 0.801891 -0.509381 -0.000000
v 0.982967 -0.615377 -0.000000
v 1.050981 -0.607427 -0.000000
v -0.085546 -0.962027 -0.130192
v 0.018270 -0.967228 -0.142211
v 0.029470 -0.873397 -0.192768
v 0.647972 -0.931779 -0.144823
v 0.668994 -0.996202 -0.000000
v 0.771319 -0.959003 -0.000000
v -0.144902 -0.865742 -0.129286
v -0.270706 -0.981505 -0.000000
v -0.210798 -1.017174 -0.000000
v -0.219446 -0.845999 -0.077706
v -0.135676 -0.725397 -0.000000
v 0.637401 -0.537326 -0.043611
v 0.599897 -0.693259 -0.162852
v 0.023954 -0.713112 -0.121464
v -0.055861 -0.706323 -0.081343
v 0.308801 -1.058130 -0.000000
v 0.736701 -0.756565 -0.120375
v 0.840625 -0.886705 -0.000000
v 0.831917 -0.671970 -0.000000
v 0.869946 -0.764956 -0.000000
v 0.753533 -0.806059 -0.118787
v 0.751017 -0.834921 -0.118787
v 0.864913 -0.822680 -0.000000
v 0.738872 -0.866934 -0.126287
v 0.658298 -0.740600 -0.160132
v 0.007070 -1.041945 -0.000000
v 0.317457 -0.967192 0.211903
v 0.626027 -0.847162 0.200919
v 0.326668 -0.844223 0.232608
v 0.359648 -0.700505 0.181008
v 0.112049 -0.728393 0.153737
v 0.642972 -0.585884 0.044027
v 0.670566 -0.665412 0.120232
v 0.733810 -0.386829 0.072256
v 0.632539 -0.498243 0.043736
v 0.711727 -0.359447 0.072256
v 0.758542 -0.368280 0.072256
v 0.750593 -0.346198 0.072256
v 0.725860 -0.340897 0.072256
v 0.828948 -0.408235 0.018232
v 0.834304 -0.480783 0.032513
v -0.085546 -0.962027 0.130192
v 0.029470 -0.873397 0.192768
v 0.018270 -0.967228 0.142211
v 0.647972 -0.931779 0.144823
v -0.144902 -0.865742 0.129286
v -0.219446 -0.845999 0.077706
v -0.293990 -0.841085 -0.000000
v 0.023954 -0.713112 0.121464
v 0.637401 -0.537326 0.043611
v 0.356879 -0.623918 -0.000000
v 0.599897 -0.693259 0.162852
v -0.055861 -0.706323 0.081343
v 0.736701 -0.756565 0.120375
v 0.751017 -0.834921 0.118787
v 0.753533 -0.806059 0.118787
v 0.738872 -0.866934 0.126287
v 0.658298 -0.740600 0.160132
vt 0.815403 0.569492
vt 0.815403 0.569492
vt 0.815403 0.569492
vt 0.666584 0.532287
vt 0.666584 0.532287
vt 0.666584 0.532287
vt 0.666584 0.532287
vt 0.666584 0.532287
vt 0.666584 0.532287
vt 0.666584 0.532287
vt 0.666584 0.532287
vt 0.666584 0.532287
vt 0.666584 0.532287
vt 0.700689 0.563291
vt 0.700689 0.563291
vt 0.700689 0.563291
vt 0.579773 0.566391
vt 0.579773 0.566391
vt 0.579773 0.566391
vt 0.697588 0.566391
vt 0.697588 0.566391
vt 0.697588 0.566391
vt 0.697588 0.566391
vt 0.697588 0.566391
vt 0.927017 0.932238
vt 0.927017 0.932238
vt 0.927017 0.932238
vt 0.576673 0.569492
vt 0.576673 0.569492
vt 0.576673 0.569492
vt 0.697588 0.566391
vt 0.697588 0.566391
vt 0.697588 0.566391
vt 0.697588 0.566391
vt 0.697588 0.566391
vt 0.697588 0.566391
vt 0.700689 0.563291
vt 0.700689 0.563291
vt 0.303838 0.553990
vt 0.303838 0.553990
vt 0.303838 0.553990
vt 0.303838 0.553990
vt 0.294537 0.566391
vt 0.294537 0.566391
vt 0.294537 0.566391
vt 0.666584 0.532287
vt 0.666584 0.532287
vt 0.666584 0.532287
vt 0.700689 0.569492
vt 0.700689 0.569492
vt 0.700689 0.569492
vt 0.666584 0.532287
vt 0.666584 0.532287
vt 0.065108 0.922936
vt 0.065108 0.922936
vt 0.065108 0.922936
vt 0.666584 0.532287
vt 0.700689 0.569492
vt 0.700689 0.569492
vt 0.700689 0.569492
vt 0.700689 0.563291
vt 0.700689 0.563291
vt 0.700689 0.563291
vt 0.666584 0.532287
vt 0.570472 0.572592
vt 0.570472 0.572592
vt 0.570472 0.572592
vt 0.666584 0.532287
vt 0.691387 0.575692
vt 0.691387 0.575692
vt 0.691387 0.575692
vt 0.666584 0.532287
vt 0.545669 0.535387
vt 0.545669 0.535387
vt 0.545669 0.535387
vt 0.666584 0.532287
vt 0.666584 0.532287
vt 0.099212 0.953940
vt 0.099212 0.953940
vt 0.099212 0.953940
vt 0.096112 0.941539
vt 0.096112 0.941539
vt 0.096112 0.941539
vt 0.691387 0.569492
vt 0.691387 0.569492
vt 0.691387 0.569492
vt 0.096112 0.941539
vt 0.096112 0.941539
vt 0.666584 0.532287
vt 0.545669 0.535387
vt 0.545669 0.535387
vt 0.545669 0.535387
vt 0.666584 0.532287
vt 0.666584 0.532287
vt 0.666584 0.532287
vt 0.666584 0.532287
vt 0.666584 0.532287
vt 0.700689 0.569492
vt 0.700689 0.569492
vt 0.700689 0.569492
vt 0.062008 0.910535
vt 0.062008 0.910535
vt 0.062008 0.910535
vt 0.666584 0.532287
vt 0.666584 0.532287
vt 0.545669 0.535387
vt 0.545669 0.535387
vt 0.700689 0.569492
vt 0.666584 0.532287
vt 0.666584 0.532287
vt 0.155020 0.910535
vt 0.155020 0.910535
vt 0.155020 0.910535
vt 0.096112 0.941539
vt 0.096112 0.941539
vt 0.700689 0.569492
vt 0.700689 0.569492
vt 0.700689 0.569492
vt 0.554970 0.566391
vt 0.554970 0.566391
vt 0.554970 0.566391
vt 0.700689 0.569492
vt 0.700689 0.569492
vt 0.700689 0.569492
vt 0.700689 0.569492
vt 0.700689 0.569492
vt 0.700689 0.569492
vt 0.700689 0.569492
vt 0.697588 0.572592
vt 0.697588 0.572592
vt 0.697588 0.572592
vt 0.697588 0.572592
vt 0.697588 0.572592
vt 0.697588 0.566391
vt 0.821604 0.572592
vt 0.821604 0.572592
vt 0.821604 0.572592
vt 0.933218 0.926037
vt 0.933218 0.926037
vt 0.933218 0.926037
vt 0.697588 0.572592
vt 0.697588 0.572592
vt 0.697588 0.572592
vt 0.697588 0.572592
vt 0.697588 0.572592
vt 0.697588 0.572592
vt 0.697588 0.572592
vt 0.697588 0.572592
vt 0.334842 0.553990
vt 0.334842 0.553990
vt 0.334842 0.553990
vt 0.303838 0.560191
vt 0.303838 0.560191
vt 0.303838 0.560191
vt 0.303838 0.560191
vt 0.700689 0.569492
vt 0.700689 0.569492
vt 0.700689 0.569492
vt 0.700689 0.569492
vt 0.700689 0.569492
vt 0.700689 0.569492
vt 0.099212 0.960141
vt 0.099212 0.960141
vt 0.099212 0.960141
vt 0.700689 0.569492
vt 0.700689 0.569492
vt 0.700689 0.563291
vt 0.700689 0.563291
vt 0.700689 0.563291
vt 0.700689 0.569492
vt 0.700689 0.569492
vt 0.700689 0.563291
vt 0.824704 0.569492
vt 0.824704 0.569492
vt 0.824704 0.569492
vt 0.824704 0.569492
vt 0.824704 0.569492
vt 0.824704 0.569492
vt 0.579773 0.572592
vt 0.579773 0.572592
vt 0.579773 0.572592
vt 0.700689 0.569492
vt 0.700689 0.569492
vt 0.700689 0.569492
vt 0.700689 0.569492
vt 0.700689 0.569492
vt 0.579773 0.572592
vt 0.579773 0.572592
vt 0.579773 0.572592
vt 0.700689 0.569492
vt 0.790600 0.532287
vt 0.790600 0.532287
vt 0.790600 0.532287
vt 0.099212 0.960141
vt 0.331742 0.953940
vt 0.331742 0.953940
vt 0.331742 0.953940
vt 0.554970 0.566391
vt 0.554970 0.566391
vt 0.554970 0.566391
vt 0.096112 0.947740
vt 0.096112 0.947740
vt 0.096112 0.947740
vt 0.579773 0.572592
vt 0.579773 0.572592
vt 0.579773 0.572592
vt 0.666584 0.538488
vt 0.666584 0.538488
vt 0.666584 0.538488
vt 0.700689 0.569492
vt 0.700689 0.569492
vt 0.700689 0.569492
vt 0.700689 0.569492
vt 0.700689 0.569492
vt 0.700689 0.569492
vt 0.700689 0.569492
vt 0.331742 0.953940
vt 0.331742 0.953940
vt 0.331742 0.953940
vt 0.700689 0.569492
vt 0.579773 0.572592
vt 0.579773 0.572592
vt 0.579773 0.572592
vt 0.189124 0.947740
vt 0.189124 0.947740
vt 0.189124 0.947740
vt 0.331742 0.953940
vt 0.331742 0.953940
vt 0.815403 0.569492
vt 0.666584 0.532287
vt 0.697588 0.566391
vt 0.927017 0.932238
vt 0.927017 0.932238
vt 0.576673 0.569492
vt 0.666584 0.532287
vt 0.700689 0.569492
vt 0.700689 0.569492
vt 0.700689 0.569492
vt 0.570472 0.572592
vt 0.691387 0.575692
vt 0.545669 0.535387
vt 0.691387 0.569492
vt 0.554970 0.566391
vt 0.821604 0.572592
vt 0.933218 0.926037
vt 0.933218 0.926037
vt 0.697588 0.572592
vt 0.700689 0.563291
vt 0.700689 0.563291
vt 0.700689 0.563291
vt 0.700689 0.563291
vt 0.824704 0.569492
vt 0.579773 0.572592
vt 0.554970 0.566391
vt 0.096112 0.947740
vn 0.1020 -0.1726 -0.9797
vn -0.0163 -0.1648 -0.9862
vn -0.0258 -0.0826 -0.9963
vn -0.1464 0.9015 -0.4072
vn 0.2038 0.7133 -0.6706
vn -0.2173 0.6350 -0.7413
vn -0.3455 -0.0598 -0.9365
vn 0.3614 0.0947 -0.9276
vn 0.2903 0.3148 -0.9037
vn 0.2917 -0.4774 -0.8289
vn -0.3384 0.0673 -0.9386
vn -0.2310 -0.1863 -0.9550
vn -0.3991 0.1048 -0.9109
vn -0.3325 0.4353 -0.8366
vn 0.0000 0.0000 -1.0000
vn 0.1523 0.7107 -0.6869
vn 0.3836 0.2055 -0.9003
vn 0.5996 0.2159 -0.7706
vn -0.2487 -0.5907 -0.7676
vn 0.5176 0.2019 -0.8315
vn 0.0107 -0.5034 -0.8640
vn -0.3136 -0.5358 -0.7839
vn 0.0244 -0.2091 -0.9776
vn 0.3006 0.2803 -0.9116
vn -0.2737 -0.2919 -0.9165
vn -0.2319 -0.3420 -0.9106
vn -0.1248 -0.4590 -0.8796
vn 0.4259 -0.7514 -0.5040
vn 0.4985 -0.6697 -0.5504
vn 0.3095 -0.8513 -0.4236
vn -0.5234 -0.3152 -0.7916
vn -0.1299 -0.8619 -0.4901
vn -0.3576 -0.6853 -0.6344
vn -0.3886 -0.6527 -0.6503
vn -0.5938 -0.2193 -0.7742
vn 0.3041 -0.6562 0.6906
vn 0.3926 0.0461 -0.9185
vn 0.3926 0.0462 -0.9185
vn 0.3927 0.0459 -0.9185
vn -0.3473 -0.0128 -0.9377
vn 0.3910 0.0527 -0.9189
vn -0.3370 -0.0306 -0.9410
vn -0.1576 0.3394 -0.9273
vn -0.1495 0.2004 -0.9682
vn 0.0191 0.8155 -0.5784
vn 0.1030 0.3151 -0.9435
vn 0.1856 0.6529 -0.7344
vn 0.0257 0.8169 -0.5763
vn 0.1617 0.6817 -0.7135
vn -0.0173 0.8846 -0.4660
vn -0.4161 0.4671 -0.7802
vn -0.5940 0.6847 -0.4223
vn -0.5030 0.8092 -0.3038
vn -0.3024 0.9343 -0.1887
vn -0.1736 0.9667 -0.1882
vn -0.1053 0.9247 -0.3659
vn -0.0981 -0.8790 -0.4667
vn -0.0921 -0.9137 -0.3959
vn 0.1538 -0.8943 -0.4202
vn 0.5289 0.3714 -0.7631
vn 0.5182 0.3772 -0.7676
vn 0.5704 0.3752 -0.7307
vn 0.5883 0.3648 -0.7217
vn 0.6551 0.2679 -0.7065
vn 0.7236 -0.0631 -0.6873
vn 0.7602 -0.1398 -0.6344
vn 0.5789 -0.5550 -0.5974
vn 0.4794 0.3491 -0.8052
vn 0.3570 0.3917 -0.8480
vn 0.2649 0.2737 -0.9246
vn 0.1329 0.2592 -0.9566
vn 0.1284 0.2586 -0.9574
vn 0.4742 0.1858 -0.8606
vn 0.1516 0.9879 0.0325
vn 0.6635 0.2025 -0.7203
vn 0.5028 0.1436 -0.8524
vn 0.5518 -0.0481 -0.8326
vn 0.5500 -0.0130 -0.8351
vn 0.4528 -0.4081 -0.7927
vn 0.5573 -0.6249 -0.5468
vn -0.0998 -0.8776 -0.4689
vn -0.0163 -0.1648 0.9862
vn 0.1020 -0.1726 0.9797
vn -0.0258 -0.0826 0.9963
vn -0.1464 0.9015 0.4072
vn 0.2038 0.7133 0.6706
vn -0.2173 0.6350 0.7413
vn -0.3455 -0.0598 0.9365
vn 0.3614 0.0947 0.9276
vn 0.2903 0.3148 0.9037
vn 0.2917 -0.4774 0.8289
vn -0.3384 0.0673 0.9386
vn -0.2310 -0.1863 0.9550
vn -0.3991 0.1048 0.9109
vn -0.3325 0.4353 0.8366
vn 0.0000 0.0000 1.0000
vn 0.2070 0.6570 0.7249
vn 0.3836 0.2056 0.9003
vn 0.6527 0.1447 0.7436
vn -0.2487 -0.5907 0.7676
vn 0.5176 0.2019 0.8315
vn 0.0107 -0.5034 0.8640
vn -0.3136 -0.5358 0.7839
vn 0.0244 -0.2091 0.9776
vn 0.3006 0.2803 0.9116
vn -0.2737 -0.2919 0.9165
vn -0.1248 -0.4590 0.8796
vn -0.2319 -0.3420 0.9106
vn 0.4259 -0.7515 0.5040
vn 0.3095 -0.8513 0.4236
vn 0.4985 -0.6697 0.5504
vn -0.5234 -0.3152 0.7916
vn -0.1299 -0.8619 0.4901
vn -0.3886 -0.6527 0.6503
vn -0.3039 -0.7361 0.6048
vn -0.7202 -0.1194 0.6834
vn 0.5134 -0.5994 -0.6141
vn 0.3926 0.0461 0.9185
vn 0.3927 0.0459 0.9185
vn 0.3926 0.0462 0.9185
vn -0.3473 -0.0128 0.9377
vn 0.3910 0.0527 0.9189
vn -0.3370 -0.0306 0.9410
vn -0.1576 0.3394 0.9273
vn -0.1495 0.2004 0.9682
vn -0.2584 0.8883 0.3798
vn 0.0655 0.2501 0.9660
vn 0.1329 0.2592 0.9566
vn 0.1284 0.2586 0.9574
vn 0.1275 0.7173 0.6850
vn 0.1617 0.6817 0.7135
vn 0.0246 0.8166 0.5767
vn -0.0173 0.8846 0.4660
vn -0.3700 0.4509 0.8123
vn -0.5030 0.8092 0.3038
vn -0.5940 0.6847 0.4223
vn -0.3024 0.9343 0.1887
vn -0.1736 0.9667 0.1882
vn -0.1053 0.9247 0.3659
vn -0.0978 -0.8786 0.4675
vn -0.0921 -0.9137 0.3959
vn -0.2030 -0.4456 0.8719
vn 0.1538 -0.8943 0.4202
vn 0.5289 0.3714 0.7631
vn 0.5704 0.3752 0.7307
vn 0.5182 0.3772 0.7676
vn 0.5883 0.3648 0.7217
vn 0.6551 0.2679 0.7065
vn 0.7236 -0.0631 0.6873
vn 0.7602 -0.1398 0.6344
vn 0.5789 -0.5550 0.5974
vn 0.4794 0.3491 0.8052
vn 0.3570 0.3917 0.8480
vn 0.2649 0.2737 0.9246
vn 0.4742 0.1858 0.8606
vn -0.1516 -0.9879 0.0325
vn 0.6635 0.2025 0.7203
vn 0.5028 0.1436 0.8524
vn 0.5518 -0.0481 0.8326
vn 0.5500 -0.0130 0.8351
vn 0.4528 -0.4081 0.7927
vn 0.5573 -0.6249 0.5468
vn -0.0998 -0.8776 0.4689
vn 0.2234 -0.4977 -0.8381
vn 0.2170 -0.6561 -0.7228
vn 0.1885 -0.8596 -0.4750
vn -0.1220 0.9134 -0.3883
vn -0.4806 0.3661 -0.7969
vn 0.2070 0.6570 -0.7249
vn 0.3737 0.1594 -0.9137
vn 0.6527 0.1447 -0.7436
vn 0.3531 -0.4709 -0.8085
vn -0.3428 -0.2027 -0.9173
vn -0.7202 -0.1194 -0.6834
vn -0.2578 0.3853 -0.8861
vn -0.3019 0.3788 -0.8749
vn -0.5021 0.6871 -0.5251
vn 0.2303 -0.9509 0.2065
vn 0.5134 -0.5994 0.6141
vn -0.3363 -0.0448 -0.9407
vn -0.1423 0.3632 -0.9208
vn -0.2584 0.8883 -0.3798
vn 0.0655 0.2501 -0.9660
vn -0.3700 0.4509 -0.8123
vn -0.0473 -0.8827 -0.4675
vn -0.2030 -0.4456 -0.8719
vn 0.1748 -0.9074 -0.3823
vn 0.7089 -0.2689 -0.6520
vn 0.1885 -0.8596 0.4750
vn 0.2170 -0.6561 0.7228
vn 0.2234 -0.4977 0.8381
vn -0.1220 0.9134 0.3883
vn -0.4806 0.3661 0.7969
vn 0.1523 0.7107 0.6869
vn 0.3737 0.1594 0.9137
vn 0.5996 0.2159 0.7706
vn 0.3531 -0.4709 0.8085
vn -0.3428 -0.2027 0.9173
vn -0.5938 -0.2193 0.7742
vn -0.3019 0.3788 0.8749
vn -0.2578 0.3853 0.8861
vn 0.2303 -0.9509 -0.2065
vn -0.5021 0.6871 0.5251
vn 0.3041 -0.6562 -0.6906
vn -0.3363 -0.0448 0.9407
vn -0.1423 0.3632 0.9208
vn 0.0191 0.8155 0.5784
vn 0.1030 0.3151 0.9435
vn -0.4161 0.4671 0.7802
vn -0.0473 -0.8827 0.4675
vn 0.1748 -0.9074 0.3823
vn 0.7089 -0.2689 0.6520
usemtl Material.001
s 1
f 1/1/1 2/2/2 3/3/3
f 4/4/4 5/5/4 6/6/4
f 7/7/5 8/8/5 9/9/5
f 8/8/6 10/10/6 9/9/6
f 9/9/7 10/10/7 11/11/7
f 9/9/8 12/12/8 13/13/8
f 13/13/9 7/7/9 9/9/9
f 14/14/10 12/15/10 15/16/10
f 14/17/11 15/18/11 16/19/11
f 14/20/12 16/21/12 17/22/12
f 17/22/13 16/21/13 18/23/13
f 19/24/14 17/22/14 18/23/14
f 20/25/15 21/26/15 14/27/15
f 22/28/16 23/29/16 20/30/16
f 24/31/17 25/32/17 26/33/17
f 21/34/18 20/35/18 23/36/18
f 25/37/19 27/38/19 14/14/19
f 14/20/20 26/33/20 25/32/20
f 14/14/21 27/38/21 12/15/21
f 27/39/22 25/40/22 28/41/22
f 28/41/23 25/40/23 29/42/23
f 29/43/24 25/44/24 24/45/24
f 30/46/25 32/47/26 31/48/27
f 33/49/28 35/50/29 34/51/30
f 36/52/31 30/46/31 37/53/31
f 30/54/32 38/55/33 37/56/34
f 37/53/35 39/57/35 36/52/35
f 36/58/36 40/59/36 39/60/36
f 12/15/37 41/61/38 15/16/39
f 15/16/40 11/62/40 16/63/40
f 9/9/41 41/64/38 12/12/37
f 41/64/42 9/9/42 11/11/42
f 6/65/43 3/66/3 32/67/44
f 5/5/45 10/10/45 42/68/45
f 5/69/46 1/70/46 3/71/46
f 42/68/47 10/10/48 8/8/49
f 43/72/50 4/4/50 6/6/50
f 44/73/51 36/74/51 39/75/51
f 39/57/52 40/76/53 44/77/54
f 4/4/55 44/77/54 40/76/53
f 44/77/54 4/4/55 43/72/56
f 31/78/57 38/79/33 30/80/32
f 31/81/58 2/82/58 45/83/58
f 32/84/44 3/85/3 2/86/2
f 33/87/59 34/88/59 45/83/59
f 46/89/60 8/8/61 7/7/62
f 48/90/63 46/91/60 7/92/62
f 48/93/64 49/94/64 46/89/64
f 50/95/65 52/96/65 51/97/65
f 51/98/66 47/99/66 53/100/66
f 33/101/28 47/102/67 35/103/29
f 8/8/61 46/89/60 54/104/68
f 54/104/69 42/68/47 8/8/49
f 54/104/70 1/105/71 42/68/72
f 46/91/73 1/106/73 54/107/73
f 1/108/74 47/99/74 53/100/74
f 46/89/75 49/94/75 50/95/75
f 50/95/76 1/105/76 46/89/76
f 50/95/77 51/97/77 1/105/77
f 51/97/78 53/109/78 1/105/78
f 1/105/79 53/109/79 33/110/79
f 53/111/80 47/112/80 33/113/80
f 55/114/81 38/115/81 31/81/81
f 56/116/82 57/117/83 58/118/84
f 59/119/85 4/120/85 60/121/85
f 7/122/86 61/123/86 62/124/86
f 62/124/87 61/123/87 10/125/87
f 61/123/88 11/126/88 10/125/88
f 61/123/89 13/127/89 12/128/89
f 13/127/90 61/123/90 7/122/90
f 63/129/91 64/130/91 12/131/91
f 63/129/92 16/132/92 64/130/92
f 63/129/93 65/133/93 16/132/93
f 65/134/94 18/23/94 16/21/94
f 65/135/95 19/136/95 18/137/95
f 63/138/96 66/139/96 67/140/96
f 68/141/97 23/142/97 19/143/97
f 24/144/98 69/145/98 70/146/98
f 23/142/99 66/147/99 69/145/99
f 70/146/100 63/129/100 27/148/100
f 69/145/101 63/129/101 70/146/101
f 63/129/102 12/131/102 27/148/102
f 27/149/103 28/150/103 70/151/103
f 28/152/104 29/153/104 70/154/104
f 29/153/105 24/155/105 70/154/105
f 71/156/106 73/157/107 72/158/108
f 74/159/109 34/51/110 35/50/111
f 71/156/112 75/160/112 37/161/112
f 71/162/113 37/163/114 38/164/115
f 37/161/116 76/165/116 77/166/116
f 75/167/117 40/168/117 78/169/117
f 12/128/118 64/170/119 79/171/120
f 11/62/121 64/172/121 16/63/121
f 61/173/122 12/174/118 79/175/120
f 79/171/123 11/126/123 61/123/123
f 58/176/84 60/177/124 72/178/125
f 59/179/126 10/180/126 80/181/126
f 59/182/127 57/117/128 81/183/129
f 81/183/130 62/124/131 10/125/132
f 78/184/133 60/185/133 4/186/133
f 82/187/134 75/188/134 78/189/134
f 40/59/135 76/165/136 82/190/137
f 4/191/138 40/192/135 82/193/137
f 82/190/137 78/184/139 4/186/138
f 73/194/140 71/162/113 38/164/115
f 45/195/141 56/196/141 73/197/141
f 72/198/142 73/199/142 56/200/142
f 45/201/143 34/202/143 74/203/143
f 83/204/144 7/205/145 62/206/146
f 48/207/147 7/208/145 83/209/144
f 48/210/148 83/211/148 49/212/148
f 52/213/149 85/214/149 84/215/149
f 47/99/150 84/215/150 86/216/150
f 74/217/109 35/218/111 47/219/151
f 62/124/146 87/220/152 83/211/144
f 87/220/153 62/124/131 81/183/130
f 87/221/154 81/222/129 57/223/128
f 83/211/155 87/220/155 57/117/155
f 57/117/156 47/99/156 86/216/156
f 83/211/157 85/214/157 49/212/157
f 85/214/158 83/211/158 57/117/158
f 85/214/159 57/117/159 84/215/159
f 84/215/160 57/117/160 86/216/160
f 57/117/161 74/159/161 86/216/161
f 86/224/162 74/225/162 47/226/162
f 55/227/163 73/197/140 38/228/115
f 1/1/164 33/229/165 2/2/166
f 4/4/167 80/230/167 5/5/167
f 19/24/168 22/231/168 17/22/168
f 14/27/15 17/232/15 20/25/15
f 17/232/15 22/233/15 20/25/15
f 22/28/169 19/234/169 23/29/169
f 23/36/170 24/31/170 26/33/170
f 26/33/171 21/34/171 23/36/171
f 14/20/172 21/34/172 26/33/172
f 36/52/173 32/47/26 30/46/25
f 37/53/174 77/235/174 39/57/174
f 6/236/175 32/237/175 43/238/175
f 32/237/176 36/58/176 43/238/176
f 77/166/177 40/59/177 39/60/177
f 40/59/178 43/238/178 4/186/178
f 36/58/179 43/238/179 40/59/179
f 15/16/180 41/61/180 11/62/180
f 6/65/181 5/239/181 3/66/181
f 5/5/182 80/230/182 10/10/182
f 5/69/183 42/240/72 1/70/71
f 44/73/184 43/241/184 36/74/184
f 31/81/185 45/83/185 55/114/185
f 32/84/186 2/86/186 31/242/186
f 33/87/165 45/83/187 2/82/166
f 52/96/65 50/95/65 49/94/65
f 47/99/188 51/98/188 52/213/188
f 56/116/189 74/159/190 57/117/191
f 59/119/192 80/243/192 4/120/192
f 65/135/193 68/244/193 19/136/193
f 68/245/96 65/246/96 67/140/96
f 65/246/96 63/138/96 67/140/96
f 68/141/194 67/247/194 23/142/194
f 69/145/195 24/144/195 23/142/195
f 23/142/196 67/247/196 66/147/196
f 69/145/197 66/147/197 63/129/197
f 71/156/106 72/158/108 75/160/198
f 37/161/199 75/160/199 76/165/199
f 75/160/200 72/158/200 78/184/200
f 72/158/201 60/185/201 78/184/201
f 4/248/202 78/169/202 40/168/202
f 40/168/203 77/249/203 76/250/203
f 75/167/204 76/250/204 40/168/204
f 11/62/205 79/251/205 64/172/205
f 58/176/206 59/252/206 60/177/206
f 59/179/207 81/222/130 10/180/132
f 59/182/208 58/118/208 57/117/208
f 82/187/209 76/253/209 75/188/209
f 45/195/210 73/197/210 55/227/210
f 72/198/125 56/200/82 58/254/84
f 45/201/211 74/203/190 56/255/189
f 85/214/149 52/213/149 49/212/149
f 84/215/212 47/99/212 52/213/212
