# Blender v3.0.0 OBJ File: 'timber.blend'
# www.blender.org
mtllib timber.mtl
o Cylinder
v 0.805204 0.919176 2.542209
v 0.217419 1.110159 2.542208
v 1.168475 0.419176 2.542209
v 1.168475 -0.198858 2.542209
v 0.805204 -0.698858 2.542209
v 0.217419 -0.889841 2.542209
v -0.370366 -0.698858 2.542209
v -0.733638 -0.198858 2.542209
v -0.733638 0.419176 2.542209
v -0.370366 0.919176 2.542209
v 0.132107 0.961716 -3.843766
v 0.719892 0.770733 -3.843766
v 1.083163 0.270733 -3.843766
v 1.083163 -0.347301 -3.843766
v 0.719892 -0.847301 -3.843766
v 0.132107 -1.038284 -3.843766
v -0.455679 -0.847301 -3.843766
v -0.818950 -0.347301 -3.843766
v -0.818950 0.270733 -3.843766
v -0.455679 0.770733 -3.843766
v 0.134658 0.899106 -0.245355
v 0.722443 0.708123 -0.245354
v 1.085715 0.208123 -0.245354
v 1.085715 -0.409911 -0.245354
v 0.722443 -0.909911 -0.245354
v 0.134658 -1.100894 -0.245354
v -0.453127 -0.909911 -0.245354
v -0.816398 -0.409911 -0.245354
v -0.216878 0.298507 5.528039
v -0.181082 0.249238 -6.415284
v -0.350916 0.114020 5.528039
v -0.292997 0.095201 -6.415284
v -0.350916 -0.114020 5.528039
v -0.292997 -0.095201 -6.415284
v -0.216878 -0.298507 5.528039
v -0.181082 -0.249238 -6.415284
v 0.000000 -0.368975 5.528039
v 0.000000 -0.308075 -6.415284
v 0.216878 -0.298507 5.528039
v 0.181082 -0.249238 -6.415284
v 0.350916 -0.114020 5.528039
v 0.292997 -0.095201 -6.415284
v 0.350916 0.114019 5.528039
v 0.292997 0.095201 -6.415284
v 0.216878 0.298507 5.528039
v 0.181082 0.249238 -6.415284
v -0.000000 0.368975 5.528039
v 0.000000 0.308076 -6.415284
v -0.816398 0.208123 -0.245354
v -0.453127 0.708123 -0.245354
v -0.587785 0.809017 -6.415284
v -0.000000 1.000000 -6.415284
v -0.951056 0.309017 -6.415284
v -0.951056 -0.309017 -6.415284
v -0.587785 -0.809017 -6.415284
v -0.000000 -1.000000 -6.415284
v 0.587785 -0.809017 -6.415284
v 0.951056 -0.309017 -6.415284
v 0.951057 0.309017 -6.415284
v 0.587785 0.809017 -6.415284
v -0.529553 0.728867 -6.415284
v 0.000000 0.900929 -6.415284
v -0.856835 0.278403 -6.415284
v -0.856835 -0.278403 -6.415284
v -0.529553 -0.728867 -6.415284
v -0.000000 -0.900929 -6.415284
v 0.529553 -0.728867 -6.415284
v 0.856835 -0.278403 -6.415284
v 0.856835 0.278403 -6.415284
v 0.529553 0.728867 -6.415284
v -0.427501 0.588405 -6.415284
v 0.000000 0.727309 -6.415284
v -0.691712 0.224751 -6.415284
v -0.691712 -0.224751 -6.415284
v -0.427502 -0.588405 -6.415284
v -0.000000 -0.727309 -6.415284
v 0.427501 -0.588405 -6.415284
v 0.691712 -0.224751 -6.415284
v 0.691712 0.224751 -6.415284
v 0.427501 0.588405 -6.415284
v -0.339581 0.467393 -6.415284
v 0.000000 0.577729 -6.415284
v -0.549453 0.178528 -6.415284
v -0.549453 -0.178528 -6.415284
v -0.339581 -0.467393 -6.415284
v -0.000000 -0.577729 -6.415284
v 0.339581 -0.467393 -6.415284
v 0.549453 -0.178528 -6.415284
v 0.549453 0.178528 -6.415284
v 0.339581 0.467393 -6.415284
v -0.254441 0.350208 -6.415284
v 0.000000 0.432881 -6.415284
v -0.411694 0.133768 -6.415284
v -0.411694 -0.133768 -6.415284
v -0.254441 -0.350208 -6.415284
v -0.000000 -0.432881 -6.415284
v 0.254441 -0.350208 -6.415284
v 0.411694 -0.133767 -6.415284
v 0.411694 0.133767 -6.415284
v 0.254441 0.350208 -6.415284
v 0.000000 1.000000 5.528039
v -0.587785 0.809017 5.528039
v -0.951056 0.309017 5.528039
v -0.951056 -0.309017 5.528039
v -0.587785 -0.809017 5.528039
v -0.000000 -1.000000 5.528039
v 0.587785 -0.809017 5.528039
v 0.951056 -0.309017 5.528039
v 0.951056 0.309017 5.528039
v 0.587785 0.809017 5.528039
v 0.000000 1.000000 5.528039
v -0.587785 0.809017 5.528039
v -0.951056 0.309017 5.528039
v -0.951056 -0.309017 5.528039
v -0.587785 -0.809017 5.528039
v -0.000000 -1.000000 5.528039
v 0.587785 -0.809017 5.528039
v 0.951056 -0.309017 5.528039
v 0.951056 0.309017 5.528039
v 0.587785 0.809017 5.528039
v 0.000000 0.926573 5.528039
v -0.544626 0.749613 5.528039
v -0.881223 0.286327 5.528039
v -0.881223 -0.286327 5.528039
v -0.544626 -0.749613 5.528039
v -0.000000 -0.926573 5.528039
v 0.544626 -0.749614 5.528039
v 0.881223 -0.286327 5.528039
v 0.881223 0.286327 5.528039
v 0.544626 0.749613 5.528039
v 0.000000 0.782239 5.528039
v -0.459789 0.632844 5.528039
v -0.743953 0.241725 5.528039
v -0.743953 -0.241725 5.528039
v -0.459789 -0.632845 5.528039
v -0.000000 -0.782239 5.528039
v 0.459788 -0.632845 5.528039
v 0.743953 -0.241725 5.528039
v 0.743953 0.241725 5.528039
v 0.459788 0.632845 5.528039
v -0.000000 0.635810 5.528039
v -0.373720 0.514381 5.528039
v -0.604691 0.196476 5.528039
v -0.604691 -0.196476 5.528039
v -0.373720 -0.514381 5.528039
v -0.000000 -0.635810 5.528039
v 0.373720 -0.514381 5.528039
v 0.604691 -0.196476 5.528039
v 0.604691 0.196476 5.528039
v 0.373720 0.514381 5.528039
v -0.000000 0.504638 5.528039
v -0.296619 0.408260 5.528039
v -0.479939 0.155942 5.528039
v -0.479939 -0.155942 5.528039
v -0.296619 -0.408261 5.528039
v 0.000000 -0.504638 5.528039
v 0.296619 -0.408261 5.528039
v 0.479939 -0.155942 5.528039
v 0.479939 0.155942 5.528039
v 0.296619 0.408260 5.528039
vt 0.540732 0.560236
vt 0.535941 0.560236
vt 0.534460 0.555679
vt 0.849709 0.442740
vt 0.850974 0.444321
vt 0.849709 0.444321
vt 0.811392 0.461208
vt 0.812656 0.462789
vt 0.811392 0.462789
vt 0.821234 0.470644
vt 0.822499 0.472225
vt 0.821234 0.472225
vt 0.854768 0.442740
vt 0.856032 0.444321
vt 0.854768 0.444321
vt 0.812656 0.461208
vt 0.813921 0.462789
vt 0.812656 0.462789
vt 0.825028 0.475386
vt 0.826293 0.473805
vt 0.826293 0.475386
vt 0.812656 0.459628
vt 0.813921 0.458047
vt 0.813921 0.459628
vt 0.850974 0.441159
vt 0.850974 0.442740
vt 0.825028 0.473805
vt 0.826293 0.472225
vt 0.811392 0.459628
vt 0.812656 0.458047
vt 0.812656 0.459628
vt 0.819970 0.472225
vt 0.821234 0.470644
vt 0.821234 0.472225
vt 0.819970 0.469063
vt 0.819970 0.470644
vt 0.813921 0.461208
vt 0.818705 0.473805
vt 0.819970 0.475386
vt 0.818705 0.475386
vt 0.819970 0.475386
vt 0.821234 0.473805
vt 0.821234 0.475386
vt 0.822499 0.470644
vt 0.823764 0.472225
vt 0.822499 0.472225
vt 0.810127 0.458047
vt 0.811392 0.459628
vt 0.810127 0.459628
vt 0.811392 0.461208
vt 0.810127 0.461208
vt 0.821234 0.469063
vt 0.822499 0.470644
vt 0.825028 0.472225
vt 0.826293 0.470644
vt 0.808863 0.459628
vt 0.810127 0.458047
vt 0.810127 0.459628
vt 0.821234 0.473805
vt 0.822499 0.473805
vt 0.853503 0.442740
vt 0.854768 0.441159
vt 0.854768 0.442740
vt 0.823764 0.475386
vt 0.825028 0.473805
vt 0.825028 0.475386
vt 0.810127 0.461208
vt 0.808863 0.461208
vt 0.541504 0.543811
vt 0.547034 0.547829
vt 0.548339 0.543811
vt 0.856032 0.441159
vt 0.856032 0.442740
vt 0.825028 0.469063
vt 0.825028 0.470644
vt 0.812656 0.461208
vt 0.808863 0.456466
vt 0.808863 0.458047
vt 0.822499 0.473805
vt 0.823764 0.475386
vt 0.822499 0.475386
vt 0.823764 0.473805
vt 0.825028 0.472225
vt 0.802539 0.459628
vt 0.803804 0.461208
vt 0.802539 0.461208
vt 0.811392 0.462789
vt 0.810127 0.462789
vt 0.811392 0.456466
vt 0.811392 0.458047
vt 0.808863 0.462789
vt 0.810127 0.462789
vt 0.823764 0.473805
vt 0.819970 0.472225
vt 0.819970 0.473805
vt 0.811392 0.456466
vt 0.811392 0.458047
vt 0.821234 0.475386
vt 0.822499 0.475386
vt 0.812656 0.458047
vt 0.813921 0.456466
vt 0.818824 0.434968
vt 0.816406 0.436206
vt 0.819090 0.435334
vt 0.544922 0.536439
vt 0.549908 0.538059
vt 0.544922 0.534413
vt 0.541954 0.549007
vt 0.540120 0.546482
vt 0.538513 0.547004
vt 0.680648 0.559590
vt 0.679885 0.561752
vt 0.680648 0.561504
vt 0.683594 0.558895
vt 0.684565 0.559210
vt 0.684958 0.558669
vt 0.549724 0.543362
vt 0.548883 0.539470
vt 0.547890 0.540837
vt 0.682623 0.561883
vt 0.683594 0.562868
vt 0.683594 0.562199
vt 0.816406 0.427527
vt 0.816406 0.427075
vt 0.813723 0.427947
vt 0.544922 0.553405
vt 0.539936 0.551785
vt 0.544922 0.555430
vt 0.686540 0.559590
vt 0.686540 0.561504
vt 0.687302 0.561752
vt 0.108932 0.444164
vt 0.250000 0.490000
vt 0.108932 0.444164
vt 0.021746 0.324164
vt 0.021746 0.324164
vt 0.021746 0.175836
vt 0.021746 0.175836
vt 0.108932 0.055836
vt 0.108932 0.055836
vt 0.250000 0.010000
vt 0.250000 0.010000
vt 0.391068 0.055836
vt 0.391068 0.055836
vt 0.478254 0.175836
vt 0.478254 0.175836
vt 0.478254 0.324164
vt 0.478254 0.324164
vt 0.391068 0.444164
vt 0.391068 0.444164
vt 0.250000 0.490000
vt 0.820472 0.415588
vt 0.825568 0.416608
vt 0.825194 0.417123
vt 0.828718 0.420943
vt 0.828113 0.421139
vt 0.828718 0.426301
vt 0.828113 0.426104
vt 0.825568 0.430636
vt 0.825194 0.430121
vt 0.820472 0.432292
vt 0.820472 0.431655
vt 0.815376 0.430636
vt 0.815750 0.430121
vt 0.812226 0.426301
vt 0.812832 0.426104
vt 0.812226 0.420943
vt 0.812832 0.421139
vt 0.815376 0.416608
vt 0.815750 0.417123
vt 0.820472 0.414952
vt 0.538337 0.565580
vt 0.532320 0.565219
vt 0.533258 0.563929
vt 0.528602 0.560102
vt 0.530119 0.559609
vt 0.530119 0.554269
vt 0.528602 0.553776
vt 0.533258 0.549948
vt 0.532320 0.548659
vt 0.538337 0.548298
vt 0.538337 0.546704
vt 0.543415 0.549948
vt 0.544352 0.548659
vt 0.548071 0.553776
vt 0.546554 0.554269
vt 0.548071 0.560102
vt 0.546554 0.559609
vt 0.543415 0.563929
vt 0.544352 0.565219
vt 0.538337 0.567174
vt 0.680955 0.561309
vt 0.675552 0.561274
vt 0.676564 0.559882
vt 0.672213 0.556679
vt 0.673850 0.556147
vt 0.672213 0.550998
vt 0.673850 0.551530
vt 0.675552 0.546403
vt 0.676564 0.547795
vt 0.680955 0.544648
vt 0.680955 0.546368
vt 0.686357 0.546403
vt 0.685346 0.547795
vt 0.689696 0.550998
vt 0.688059 0.551530
vt 0.688059 0.556147
vt 0.689696 0.556679
vt 0.686357 0.561274
vt 0.685346 0.559882
vt 0.680955 0.563029
vt 0.538337 0.562513
vt 0.534208 0.562621
vt 0.535060 0.561449
vt 0.533035 0.558661
vt 0.531657 0.559109
vt 0.531657 0.554769
vt 0.533035 0.555216
vt 0.534208 0.551257
vt 0.535060 0.552429
vt 0.538337 0.549916
vt 0.538337 0.551365
vt 0.541613 0.552429
vt 0.542465 0.551257
vt 0.545016 0.554769
vt 0.543638 0.555216
vt 0.543638 0.558661
vt 0.545016 0.559109
vt 0.542465 0.562621
vt 0.541613 0.561449
vt 0.538337 0.563962
vt 0.680955 0.558174
vt 0.677469 0.558635
vt 0.678406 0.557346
vt 0.675315 0.555671
vt 0.676831 0.555178
vt 0.675315 0.552006
vt 0.676831 0.552499
vt 0.677469 0.549042
vt 0.678406 0.550331
vt 0.680955 0.549503
vt 0.680955 0.547909
vt 0.684440 0.549042
vt 0.683503 0.550331
vt 0.686594 0.552006
vt 0.685078 0.552499
vt 0.685078 0.555178
vt 0.686594 0.555671
vt 0.684440 0.558635
vt 0.683503 0.557346
vt 0.680955 0.559768
vt 0.538337 0.552863
vt 0.540732 0.553642
vt 0.542213 0.555679
vt 0.542213 0.558198
vt 0.538337 0.561015
vt 0.534460 0.558198
vt 0.535941 0.553642
vt 0.849709 0.441159
vt 0.821234 0.469063
vt 0.819970 0.473805
vt 0.823764 0.470644
vt 0.822499 0.469063
vt 0.853503 0.441159
vt 0.547034 0.542015
vt 0.544922 0.541328
vt 0.542810 0.542015
vt 0.541504 0.546032
vt 0.542810 0.547829
vt 0.544922 0.548515
vt 0.548339 0.546032
vt 0.854768 0.441159
vt 0.826293 0.469063
vt 0.810127 0.456466
vt 0.823764 0.472225
vt 0.803804 0.459628
vt 0.810127 0.456466
vt 0.818705 0.472225
vt 0.812656 0.456466
vt 0.812656 0.456466
vt 0.816406 0.435754
vt 0.552990 0.547543
vt 0.549908 0.551785
vt 0.551099 0.553423
vt 0.554916 0.548169
vt 0.554916 0.541675
vt 0.551099 0.536420
vt 0.538745 0.536420
vt 0.539936 0.538059
vt 0.534928 0.541675
vt 0.534928 0.548169
vt 0.536854 0.547543
vt 0.536854 0.542300
vt 0.552990 0.542300
vt 0.544922 0.539873
vt 0.544922 0.538183
vt 0.540961 0.539470
vt 0.538513 0.542840
vt 0.540120 0.543362
vt 0.540961 0.550373
vt 0.544922 0.551660
vt 0.548883 0.550374
vt 0.547890 0.549007
vt 0.551331 0.547004
vt 0.551331 0.542840
vt 0.549724 0.546482
vt 0.541954 0.540837
vt 0.544922 0.549971
vt 0.679885 0.559342
vt 0.702229 0.551755
vt 0.707652 0.549993
vt 0.707652 0.546255
vt 0.684958 0.562425
vt 0.685801 0.561264
vt 0.685801 0.559830
vt 0.685165 0.560036
vt 0.683594 0.558226
vt 0.682229 0.558669
vt 0.681386 0.559830
vt 0.682023 0.560036
vt 0.681386 0.561264
vt 0.682229 0.562425
vt 0.682023 0.561057
vt 0.685165 0.561057
vt 0.682623 0.559210
vt 0.820318 0.432912
vt 0.813723 0.435334
vt 0.813989 0.434968
vt 0.820748 0.433051
vt 0.820318 0.430370
vt 0.812064 0.433051
vt 0.812494 0.432912
vt 0.820748 0.430230
vt 0.818824 0.428313
vt 0.819090 0.427947
vt 0.812064 0.430230
vt 0.812494 0.430370
vt 0.813989 0.428313
vt 0.538745 0.553423
vt 0.681773 0.563053
vt 0.681302 0.563702
vt 0.683594 0.564446
vt 0.685886 0.563702
vt 0.685414 0.563053
vt 0.687302 0.559342
vt 0.685886 0.557392
vt 0.683594 0.556647
vt 0.683594 0.557449
vt 0.681302 0.557392
vt 0.681773 0.558041
vt 0.683594 0.563644
vt 0.685414 0.558041
vn 0.0000 0.0000 1.0000
vn -0.8088 0.5877 -0.0205
vn 0.9987 -0.0000 -0.0513
vn -0.8071 -0.5864 0.0684
vn -0.9996 0.0000 0.0297
vn 0.8086 0.5875 -0.0328
vn -0.3090 -0.9511 0.0017
vn 0.8071 0.5864 -0.0684
vn -0.8085 0.5874 -0.0372
vn -0.3090 -0.9509 -0.0163
vn 0.9996 0.0000 -0.0297
vn 0.3084 -0.9492 0.0627
vn 0.3090 -0.9510 -0.0126
vn 0.8090 0.5878 0.0097
vn -0.8080 0.5870 0.0502
vn 0.3089 -0.9506 -0.0300
vn -0.3084 0.9492 -0.0627
vn 0.3080 0.9479 -0.0809
vn 0.3090 0.9509 0.0163
vn -0.8064 -0.5859 -0.0803
vn -0.3080 -0.9479 0.0809
vn 0.8088 -0.5877 0.0205
vn -0.8090 -0.5878 -0.0097
vn -0.3090 0.9510 0.0126
vn -0.9987 0.0000 0.0513
vn 0.8090 -0.5878 -0.0108
vn 0.0000 0.0000 -1.0000
vn -0.9974 0.0000 -0.0726
vn -0.3085 -0.9495 -0.0575
vn 1.0000 -0.0000 -0.0007
vn 0.8085 -0.5874 0.0372
vn -0.3089 0.9506 0.0300
vn -1.0000 0.0000 0.0007
vn 0.3090 -0.9509 -0.0168
vn 0.3090 0.9511 -0.0017
vn 0.3085 0.9495 0.0575
vn 0.8080 -0.5870 -0.0502
vn -0.3090 0.9509 0.0168
vn -0.8090 0.5878 0.0108
vn 0.9974 -0.0000 0.0726
vn -0.8086 -0.5875 0.0328
vn 0.8064 0.5859 0.0803
usemtl Material.001
s off
f 45/1/1 29/2/1 33/3/1
f 9/4/2 50/5/2 49/6/2
f 13/7/3 58/8/3 59/9/3
f 7/10/4 28/11/4 27/12/4
f 8/13/5 49/14/5 28/15/5
f 12/16/6 59/17/6 60/18/6
f 56/19/7 17/20/7 55/21/7
f 22/22/8 3/23/8 23/24/8
f 9/4/9 102/25/9 10/26/9
f 16/27/10 27/28/10 17/20/10
f 23/29/11 4/30/11 24/31/11
f 25/32/12 6/33/12 26/34/12
f 107/35/13 6/33/13 5/36/13
f 22/22/14 13/37/14 12/16/14
f 19/38/15 51/39/15 53/40/15
f 57/41/16 16/42/16 56/43/16
f 10/44/17 21/45/17 50/46/17
f 2/47/18 22/48/18 21/49/18
f 21/49/19 12/50/19 11/51/19
f 105/52/20 8/53/20 7/10/20
f 26/54/21 7/55/21 27/28/21
f 24/56/22 5/57/22 25/58/22
f 17/59/23 28/11/23 18/60/23
f 10/61/24 101/62/24 2/63/24
f 54/64/25 19/65/25 53/66/25
f 24/56/26 15/67/26 14/68/26
f 34/69/27 46/70/27 42/71/27
f 8/13/28 103/72/28 9/73/28
f 106/74/29 7/55/29 6/75/29
f 23/29/30 14/76/30 13/7/30
f 108/77/31 5/57/31 4/78/31
f 20/79/32 52/80/32 51/81/32
f 18/82/33 49/83/33 19/65/33
f 25/84/34 16/85/34 15/86/34
f 11/51/35 60/87/35 52/88/35
f 2/47/36 110/89/36 1/90/36
f 58/91/37 15/67/37 57/92/37
f 20/79/38 21/45/38 11/93/38
f 19/38/39 50/94/39 20/95/39
f 109/96/40 4/30/40 3/97/40
f 55/98/41 18/60/41 54/99/41
f 1/100/42 109/101/42 3/23/42
f 65/102/27 56/103/27 55/104/27
f 76/105/27 77/106/27 66/107/27
f 91/108/27 93/109/27 83/110/27
f 89/111/27 78/112/27 88/113/27
f 48/114/27 30/115/27 91/116/27
f 98/117/27 87/118/27 97/119/27
f 40/120/27 96/121/27 38/122/27
f 62/123/27 52/124/27 60/125/27
f 72/126/27 71/127/27 62/128/27
f 83/129/27 84/130/27 74/131/27
f 112/132/1 101/133/1 102/134/1
f 113/135/1 102/134/1 103/136/1
f 114/137/1 103/136/1 104/138/1
f 115/139/1 104/138/1 105/140/1
f 116/141/1 105/140/1 106/142/1
f 117/143/1 106/142/1 107/144/1
f 118/145/1 107/144/1 108/146/1
f 119/147/1 108/146/1 109/148/1
f 120/149/1 109/148/1 110/150/1
f 111/151/1 110/150/1 101/133/1
f 121/152/1 112/153/1 122/154/1
f 122/154/1 113/155/1 123/156/1
f 123/156/1 114/157/1 124/158/1
f 124/158/1 115/159/1 125/160/1
f 125/160/1 116/161/1 126/162/1
f 126/162/1 117/163/1 127/164/1
f 127/164/1 118/165/1 128/166/1
f 128/166/1 119/167/1 129/168/1
f 129/168/1 120/169/1 130/170/1
f 130/170/1 111/171/1 121/152/1
f 131/172/1 122/173/1 132/174/1
f 132/174/1 123/175/1 133/176/1
f 134/177/1 123/175/1 124/178/1
f 135/179/1 124/178/1 125/180/1
f 136/181/1 125/180/1 126/182/1
f 137/183/1 126/182/1 127/184/1
f 137/183/1 128/185/1 138/186/1
f 138/186/1 129/187/1 139/188/1
f 140/189/1 129/187/1 130/190/1
f 140/189/1 121/191/1 131/172/1
f 141/192/1 132/193/1 142/194/1
f 142/194/1 133/195/1 143/196/1
f 143/196/1 134/197/1 144/198/1
f 144/198/1 135/199/1 145/200/1
f 145/200/1 136/201/1 146/202/1
f 146/202/1 137/203/1 147/204/1
f 147/204/1 138/205/1 148/206/1
f 149/207/1 138/205/1 139/208/1
f 149/207/1 140/209/1 150/210/1
f 141/192/1 140/209/1 131/211/1
f 151/212/1 142/213/1 152/214/1
f 153/215/1 142/213/1 143/216/1
f 153/215/1 144/217/1 154/218/1
f 154/218/1 145/219/1 155/220/1
f 155/220/1 146/221/1 156/222/1
f 157/223/1 146/221/1 147/224/1
f 157/223/1 148/225/1 158/226/1
f 159/227/1 148/225/1 149/228/1
f 159/227/1 150/229/1 160/230/1
f 151/212/1 150/229/1 141/231/1
f 47/232/1 152/233/1 29/234/1
f 29/234/1 153/235/1 31/236/1
f 31/236/1 154/237/1 33/238/1
f 33/238/1 155/239/1 35/240/1
f 37/241/1 155/239/1 156/242/1
f 37/241/1 157/243/1 39/244/1
f 39/244/1 158/245/1 41/246/1
f 43/247/1 158/245/1 159/248/1
f 43/247/1 160/249/1 45/250/1
f 47/232/1 160/249/1 151/251/1
f 37/252/1 39/253/1 41/254/1
f 41/254/1 43/255/1 45/1/1
f 45/1/1 47/256/1 29/2/1
f 29/2/1 31/257/1 33/3/1
f 33/3/1 35/258/1 45/1/1
f 35/258/1 37/252/1 45/1/1
f 37/252/1 41/254/1 45/1/1
f 9/4/2 10/26/2 50/5/2
f 13/7/3 14/76/3 58/8/3
f 7/10/4 8/53/4 28/11/4
f 8/13/5 9/73/5 49/14/5
f 12/16/6 13/37/6 59/17/6
f 56/19/7 16/27/7 17/20/7
f 22/22/8 1/100/8 3/23/8
f 9/4/9 103/259/9 102/25/9
f 16/27/10 26/54/10 27/28/10
f 23/29/11 3/97/11 4/30/11
f 25/32/12 5/36/12 6/33/12
f 107/35/13 106/260/13 6/33/13
f 22/22/14 23/24/14 13/37/14
f 19/38/15 20/95/15 51/39/15
f 57/41/16 15/261/16 16/42/16
f 10/44/17 2/262/17 21/45/17
f 2/47/18 1/90/18 22/48/18
f 21/49/19 22/48/19 12/50/19
f 105/52/20 104/263/20 8/53/20
f 26/54/21 6/75/21 7/55/21
f 24/56/22 4/78/22 5/57/22
f 17/59/23 27/12/23 28/11/23
f 10/61/24 102/264/24 101/62/24
f 54/64/25 18/82/25 19/65/25
f 24/56/26 25/58/26 15/67/26
f 42/71/27 40/265/27 38/266/27
f 38/266/27 36/267/27 34/69/27
f 34/69/27 32/268/27 30/269/27
f 30/269/27 48/270/27 46/70/27
f 46/70/27 44/271/27 42/71/27
f 42/71/27 38/266/27 34/69/27
f 34/69/27 30/269/27 46/70/27
f 8/13/28 104/272/28 103/72/28
f 106/74/29 105/273/29 7/55/29
f 23/29/30 24/31/30 14/76/30
f 108/77/31 107/274/31 5/57/31
f 20/79/32 11/93/32 52/80/32
f 18/82/33 28/275/33 49/83/33
f 25/84/34 26/276/34 16/85/34
f 11/51/35 12/50/35 60/87/35
f 2/47/36 101/277/36 110/89/36
f 58/91/37 14/68/37 15/67/37
f 20/79/38 50/46/38 21/45/38
f 19/38/39 49/278/39 50/94/39
f 109/96/40 108/279/40 4/30/40
f 55/98/41 17/59/41 18/60/41
f 1/100/42 110/280/42 109/101/42
f 65/102/27 66/281/27 56/103/27
f 79/282/27 80/283/27 70/284/27
f 70/284/27 69/285/27 79/282/27
f 69/285/27 68/286/27 79/282/27
f 68/286/27 67/287/27 77/106/27
f 67/287/27 66/107/27 77/106/27
f 66/107/27 65/288/27 75/289/27
f 65/288/27 64/290/27 75/289/27
f 64/290/27 63/291/27 73/292/27
f 64/290/27 73/292/27 74/293/27
f 78/294/27 79/282/27 68/286/27
f 64/290/27 74/293/27 75/289/27
f 77/106/27 78/294/27 68/286/27
f 66/107/27 75/289/27 76/105/27
f 96/295/27 97/119/27 87/118/27
f 87/118/27 86/296/27 96/295/27
f 86/296/27 85/297/27 96/295/27
f 85/297/27 84/298/27 94/299/27
f 84/298/27 83/110/27 94/299/27
f 83/110/27 81/300/27 91/108/27
f 81/300/27 82/301/27 91/108/27
f 82/301/27 90/302/27 100/303/27
f 90/302/27 89/304/27 100/303/27
f 89/304/27 88/305/27 99/306/27
f 88/305/27 98/117/27 99/306/27
f 95/307/27 96/295/27 85/297/27
f 89/304/27 99/306/27 100/303/27
f 94/299/27 95/307/27 85/297/27
f 82/301/27 100/303/27 92/308/27
f 82/301/27 92/308/27 91/108/27
f 93/109/27 94/299/27 83/110/27
f 89/111/27 79/309/27 78/112/27
f 36/310/27 38/311/27 96/312/27
f 96/312/27 95/313/27 36/310/27
f 95/313/27 94/314/27 36/310/27
f 94/314/27 93/315/27 32/316/27
f 93/315/27 91/116/27 32/316/27
f 91/116/27 92/317/27 48/114/27
f 92/317/27 100/318/27 48/114/27
f 100/318/27 99/319/27 44/320/27
f 99/319/27 98/321/27 44/320/27
f 98/321/27 97/322/27 40/120/27
f 98/321/27 40/120/27 42/323/27
f 34/324/27 36/310/27 94/314/27
f 98/321/27 42/323/27 44/320/27
f 32/316/27 34/324/27 94/314/27
f 100/318/27 44/320/27 46/325/27
f 100/318/27 46/325/27 48/114/27
f 30/115/27 32/316/27 91/116/27
f 98/117/27 88/305/27 87/118/27
f 40/120/27 97/322/27 96/121/27
f 64/326/27 65/102/27 55/104/27
f 57/327/27 56/103/27 67/328/27
f 56/103/27 66/281/27 67/328/27
f 64/326/27 55/104/27 54/329/27
f 63/330/27 64/326/27 54/329/27
f 58/331/27 57/327/27 68/332/27
f 57/327/27 67/328/27 68/332/27
f 63/330/27 54/329/27 53/333/27
f 61/334/27 63/330/27 51/335/27
f 63/330/27 53/333/27 51/335/27
f 59/336/27 58/331/27 68/332/27
f 59/336/27 68/332/27 69/337/27
f 62/123/27 61/334/27 51/335/27
f 60/125/27 59/336/27 69/337/27
f 60/125/27 69/337/27 70/338/27
f 62/123/27 51/335/27 52/124/27
f 60/125/27 70/338/27 62/123/27
f 71/127/27 73/292/27 63/291/27
f 63/291/27 61/339/27 71/127/27
f 61/339/27 62/128/27 71/127/27
f 62/128/27 70/284/27 72/126/27
f 70/284/27 80/283/27 72/126/27
f 87/340/27 88/113/27 78/112/27
f 78/112/27 77/341/27 87/340/27
f 77/341/27 76/342/27 87/340/27
f 76/342/27 75/343/27 85/344/27
f 75/343/27 74/131/27 85/344/27
f 74/131/27 73/345/27 83/129/27
f 73/345/27 71/346/27 83/129/27
f 71/346/27 72/347/27 82/348/27
f 72/347/27 80/349/27 82/348/27
f 80/349/27 79/309/27 89/111/27
f 80/349/27 89/111/27 90/350/27
f 86/351/27 87/340/27 76/342/27
f 80/349/27 90/350/27 82/348/27
f 85/344/27 86/351/27 76/342/27
f 71/346/27 82/348/27 81/352/27
f 71/346/27 81/352/27 83/129/27
f 84/130/27 85/344/27 74/131/27
f 112/132/1 111/151/1 101/133/1
f 113/135/1 112/132/1 102/134/1
f 114/137/1 113/135/1 103/136/1
f 115/139/1 114/137/1 104/138/1
f 116/141/1 115/139/1 105/140/1
f 117/143/1 116/141/1 106/142/1
f 118/145/1 117/143/1 107/144/1
f 119/147/1 118/145/1 108/146/1
f 120/149/1 119/147/1 109/148/1
f 111/151/1 120/149/1 110/150/1
f 121/152/1 111/171/1 112/153/1
f 122/154/1 112/153/1 113/155/1
f 123/156/1 113/155/1 114/157/1
f 124/158/1 114/157/1 115/159/1
f 125/160/1 115/159/1 116/161/1
f 126/162/1 116/161/1 117/163/1
f 127/164/1 117/163/1 118/165/1
f 128/166/1 118/165/1 119/167/1
f 129/168/1 119/167/1 120/169/1
f 130/170/1 120/169/1 111/171/1
f 131/172/1 121/191/1 122/173/1
f 132/174/1 122/173/1 123/175/1
f 134/177/1 133/176/1 123/175/1
f 135/179/1 134/177/1 124/178/1
f 136/181/1 135/179/1 125/180/1
f 137/183/1 136/181/1 126/182/1
f 137/183/1 127/184/1 128/185/1
f 138/186/1 128/185/1 129/187/1
f 140/189/1 139/188/1 129/187/1
f 140/189/1 130/190/1 121/191/1
f 141/192/1 131/211/1 132/193/1
f 142/194/1 132/193/1 133/195/1
f 143/196/1 133/195/1 134/197/1
f 144/198/1 134/197/1 135/199/1
f 145/200/1 135/199/1 136/201/1
f 146/202/1 136/201/1 137/203/1
f 147/204/1 137/203/1 138/205/1
f 149/207/1 148/206/1 138/205/1
f 149/207/1 139/208/1 140/209/1
f 141/192/1 150/210/1 140/209/1
f 151/212/1 141/231/1 142/213/1
f 153/215/1 152/214/1 142/213/1
f 153/215/1 143/216/1 144/217/1
f 154/218/1 144/217/1 145/219/1
f 155/220/1 145/219/1 146/221/1
f 157/223/1 156/222/1 146/221/1
f 157/223/1 147/224/1 148/225/1
f 159/227/1 158/226/1 148/225/1
f 159/227/1 149/228/1 150/229/1
f 151/212/1 160/230/1 150/229/1
f 47/232/1 151/251/1 152/233/1
f 29/234/1 152/233/1 153/235/1
f 31/236/1 153/235/1 154/237/1
f 33/238/1 154/237/1 155/239/1
f 37/241/1 35/240/1 155/239/1
f 37/241/1 156/242/1 157/243/1
f 39/244/1 157/243/1 158/245/1
f 43/247/1 41/246/1 158/245/1
f 43/247/1 159/248/1 160/249/1
f 47/232/1 45/250/1 160/249/1
