<svg xmlns="http://www.w3.org/2000/svg" width="1465" height="1056" viewBox="0 0 1465 1056">
  <g id="Layer_1" data-name="Layer 1">
    <circle cx="1440" cy="25" r="25" style="fill: #1e545f"/>
    <circle cx="1440" cy="91" r="25" style="fill: #c3dc6d"/>
    <circle cx="1440" cy="157" r="25" style="fill: #5bb74d"/>
    <circle cx="1440" cy="223" r="25" style="fill: #95abb1"/>
  </g>
  <g id="Elements">
    <path id="Panel" d="M1046,827H37.74A31,31,0,0,1,7,791.62l64.2-452.95A31,31,0,0,1,101.94,312h944a31,31,0,0,1,31,31V796A31,31,0,0,1,1046,827Z" style="fill: #f2f2f2"/>
    <g id="Cancel">
      <path d="M1013.15,850a14.57,14.57,0,0,1-14.45-12.78l-12.13-98.89A14.56,14.56,0,0,1,1001,722h115.42A14.57,14.57,0,0,1,1131,736.56v98.88A14.57,14.57,0,0,1,1116.44,850Z" style="fill: #662d91"/>
      <path d="M1107.18,758.16c-4.4,5.91-13.59,16.59-28.5,28.94a4.55,4.55,0,0,0,.18,7.14A111,111,0,0,0,1110.38,811a4.56,4.56,0,0,1,3.1,4.94l-.87,6.5a4.56,4.56,0,0,1-5.73,3.8c-8.51-2.37-25.56-9-43.15-23.53a4.56,4.56,0,0,0-5.48-.24,301.66,301.66,0,0,1-37,22,4.54,4.54,0,0,1-6.21-2.39l-2.59-6.38a4.56,4.56,0,0,1,2.22-5.81,280.41,280.41,0,0,0,30.39-17.84,4.56,4.56,0,0,0,.88-6.83c-12.32-14-20.27-27.37-23.93-35.33a4.56,4.56,0,0,1,2.78-6.25l6.64-2.09a4.56,4.56,0,0,1,5.47,2.37,144.16,144.16,0,0,0,22.68,32.55,4.55,4.55,0,0,0,6.22.48c14.74-11.84,23.91-22.26,28-27.5a4.54,4.54,0,0,1,5.71-1.25l6.16,3.21A4.57,4.57,0,0,1,1107.18,758.16Z" style="fill: #fff"/>
    </g>
    <g id="Ok">
      <path d="M843.21,870a16.75,16.75,0,0,1-16.51-19.55l16-94.51A16.71,16.71,0,0,1,859.26,742h95.79a16.75,16.75,0,0,1,16.64,14.83l10.91,94.5A16.75,16.75,0,0,1,966,870Z" style="fill: #5bb74d"/>
      <path d="M888.47,857a8,8,0,0,1-4.29-6.78c-.95-4.78-7.48-24.77-22.95-30.79l-7.46-2.9,5.8-14.92,7.46,2.91c11.69,4.54,19.66,13.75,24.86,22.67,16-34.63,46.64-65.79,48.18-67.35l5.63-5.68,11.37,11.25-5.63,5.69c-.53.53-42,42.82-51.38,80.24a8.19,8.19,0,0,1-3.34,5.15Z" style="fill: #f2f2f2"/>
    </g>
    <g id="Copy">
      <path d="M842.53,1056A16.75,16.75,0,0,1,826,1036.45l16.05-94.51A16.71,16.71,0,0,1,858.58,928h95.79A16.75,16.75,0,0,1,971,942.83l10.91,94.5A16.75,16.75,0,0,1,965.28,1056Z" style="fill: #1e545f"/>
      <rect x="883" y="941" width="63" height="78" rx="12.94" style="fill: #f2f2f2"/>
      <path d="M889.94,1026A13,13,0,0,1,877,1013.06V962h-1.06A13,13,0,0,0,863,974.94v52.12A13,13,0,0,0,875.94,1040h37.12A13,13,0,0,0,926,1027.06V1026Z" style="fill: #f2f2f2"/>
    </g>
    <g id="Return">
      <path d="M673.15,192a14.57,14.57,0,0,1-14.45-12.79L646.57,80.33A14.56,14.56,0,0,1,661,64H776.44A14.57,14.57,0,0,1,791,78.56v98.88A14.57,14.57,0,0,1,776.44,192Z" style="fill: #f2f2f2"/>
      <path d="M677.13,147h58.61a1.74,1.74,0,0,0,1.74-1.74V127.13a1.74,1.74,0,0,0-1.74-1.74H720.4a1.74,1.74,0,0,1-1.26-2.94l25.77-27a1.73,1.73,0,0,1,2.62.12l21.26,27a1.74,1.74,0,0,1-1.37,2.81h-14a1.72,1.72,0,0,0-1.73,1.7L751,159.3a1.73,1.73,0,0,1-1.73,1.7H675.94a1.73,1.73,0,0,1-1.72-1.93l1.18-10.53A1.74,1.74,0,0,1,677.13,147Z" style="fill: #5bb74d"/>
    </g>
    <g id="Undo">
      <path d="M20.58,187A17.58,17.58,0,0,1,3,169.42V76.58A17.58,17.58,0,0,1,20.58,59H129.93A17.88,17.88,0,0,1,140,62a17.59,17.59,0,0,1,7.54,17.56l-15.77,92.85A17.52,17.52,0,0,1,114.45,187Z" style="fill: #f2f2f2"/>
      <path d="M101.68,150.12c2.1-18.09-9.26-34.12-24.14-37-11.83-2.25-24.52,4.08-31.39,16l16.41,17L22,144.24,23.61,98l10.46,16.8S108.93,56.88,121,156Z" style="fill: #5bb74d"/>
    </g>
    <g id="Load">
      <path d="M495,211a16.75,16.75,0,0,1-16.51-19.55l16.05-94.51A16.69,16.69,0,0,1,511.09,83h95.79a16.73,16.73,0,0,1,16.63,14.82l10.91,94.51A16.74,16.74,0,0,1,617.79,211Z" style="fill: #f2f2f2"/>
      <path d="M579.87,131.2l26.34-2a4,4,0,0,1,4.32,3.85l2.34,58.57a4,4,0,0,1-4.6,4.14L582,191.84a4.31,4.31,0,0,0-.71-.05L505.48,194a4,4,0,0,1-4.13-4.11l1.45-61.75a4,4,0,0,1,4.81-3.85l33.17,6.68a4,4,0,0,1,3.22,3.92v1.56a4,4,0,0,1-4.73,4L516,136.18a4,4,0,0,0-4.73,3.87l-.93,41.7a4,4,0,0,0,4.2,4.11l67.3-3.1a4,4,0,0,1,.77,0L597.5,185a4,4,0,0,0,4.59-4.08l-1-37.09a4,4,0,0,0-4.24-3.9l-16.69.94a4,4,0,0,1-4.21-4.49l.19-1.63A4,4,0,0,1,579.87,131.2Z" style="fill: #5bb74d"/>
      <path d="M554,152l1.78-13.89a2.62,2.62,0,0,0,0-.28l-1.49-16.21a1.27,1.27,0,0,0-1.48-1.14l-11.74,2a1.28,1.28,0,0,1-1.29-2l9.34-14.5L558,92.23a1.28,1.28,0,0,1,2.14,0l9.71,14.35L578.92,120a1.28,1.28,0,0,1-1.18,2l-13.07-1.21a1.28,1.28,0,0,0-1.39,1.4l1.38,14.17a1,1,0,0,1,0,.29L562.45,153a1.27,1.27,0,0,1-1.4,1.1l-6-.66A1.28,1.28,0,0,1,554,152Z" style="fill: #5bb74d"/>
    </g>
    <g id="Save">
      <path d="M343.05,192a17.6,17.6,0,0,1-17.44-15.44L314.22,83.71A17.57,17.57,0,0,1,331.67,64H453.45a17.58,17.58,0,0,1,17.33,20.52L455,177.37A17.53,17.53,0,0,1,437.68,192Z" style="fill: #f2f2f2"/>
      <path d="M397.36,124.51A85,85,0,0,0,423.43,107a16.05,16.05,0,1,0-8.85-8.09,74.38,74.38,0,0,1-21.94,14.6,93.15,93.15,0,0,1-24.62,6.8,16,16,0,1,0-10,23.18,79.76,79.76,0,0,0,17,13.15,65.06,65.06,0,0,0,28.33,8.84,16,16,0,1,0-.33-12.08,53.77,53.77,0,0,1-22-7.18,66.62,66.62,0,0,1-13.26-10,16.33,16.33,0,0,0,1.69-4A105.93,105.93,0,0,0,397.36,124.51Z" style="fill: #5bb74d"/>
    </g>
    <g id="Redo">
      <path d="M176,206a17.58,17.58,0,0,1-17.33-20.52l15.77-92.85A17.53,17.53,0,0,1,191.79,78h80.68A17.64,17.64,0,0,1,289.9,93.27l12.26,92.85A17.58,17.58,0,0,1,284.73,206Z" style="fill: #f2f2f2"/>
      <path d="M200.12,164.69C198,146.74,209.29,130.85,224,128c11.71-2.24,24.27,4,31.08,15.82l-16.25,16.87L279,158.86,277.41,113,267.05,129.7S193,72.23,181,170.52Z" style="fill: #5bb74d"/>
    </g>
  </g>
</svg>
